<svg width="14" height="8" viewBox="0 0 14 8" fill="none" xmlns="http://www.w3.org/2000/svg">
<path d="M6.66526 4.97026L2.08926 0.394264C1.98011 0.2738 1.84762 0.176769 1.69983 0.109058C1.55205 0.041348 1.39204 0.00437117 1.22954 0.000370026C1.06703 -0.00363111 0.905398 0.0254259 0.754459 0.0857811C0.60352 0.146136 0.466419 0.236532 0.351472 0.351479C0.236526 0.466425 0.146132 0.603528 0.0857766 0.754467C0.0254212 0.905406 -0.0036376 1.06703 0.000363583 1.22954C0.00436476 1.39205 0.0413416 1.55205 0.109052 1.69984C0.176762 1.84763 0.273794 1.98011 0.394258 2.08926L5.81626 7.51326C5.92774 7.62514 6.06021 7.7139 6.20607 7.77447C6.35194 7.83503 6.50832 7.86621 6.66626 7.86621C6.82419 7.86621 6.98058 7.83503 7.12644 7.77447C7.2723 7.7139 7.40477 7.62514 7.51626 7.51326L12.9383 2.08926C13.0587 1.98011 13.1558 1.84763 13.2235 1.69984C13.2912 1.55205 13.3281 1.39205 13.3322 1.22954C13.3362 1.06703 13.3071 0.905406 13.2467 0.754467C13.1864 0.603528 13.096 0.466425 12.981 0.351479C12.8661 0.236532 12.729 0.146136 12.5781 0.0857811C12.4271 0.0254259 12.2655 -0.00363111 12.103 0.000370026C11.9405 0.00437117 11.7805 0.041348 11.6327 0.109058C11.4849 0.176769 11.3524 0.2738 11.2433 0.394264L6.66526 4.97026Z" fill="#6F6F6F"/>
</svg>
