<svg width="40" height="40" viewBox="0 0 59 60" fill="none" xmlns="http://www.w3.org/2000/svg">
<g id="Group 1261153676">
<circle id="Ellipse 1610" cx="29.5" cy="30" r="29.5" fill="#FFF7F0"/>
<path id="Path 136" fill-rule="evenodd" clip-rule="evenodd" d="M27.3462 19.7631C25.4938 20.2525 23.853 21.3572 22.6815 22.9037C21.5101 24.4502 20.8746 26.3508 20.8748 28.3068V34.1876C20.8745 34.4473 20.7737 34.6963 20.5942 34.8801C20.4148 35.0639 20.1714 35.1675 19.9174 35.1682C19.6656 35.1682 19.4163 35.2189 19.1837 35.3174C18.951 35.4159 18.7396 35.5603 18.5616 35.7423C18.3835 35.9244 18.2423 36.1405 18.146 36.3783C18.0496 36.6161 18 36.871 18 37.1285C18 37.3859 18.0496 37.6408 18.146 37.8786C18.2423 38.1164 18.3835 38.3325 18.5616 38.5146C18.7396 38.6966 18.951 38.841 19.1837 38.9395C19.4163 39.038 19.6656 39.0887 19.9174 39.0887H39.0826C39.5911 39.0887 40.0788 38.8822 40.4384 38.5146C40.798 38.147 41 37.6484 41 37.1285C41 36.6086 40.798 36.11 40.4384 35.7423C40.0788 35.3747 39.5911 35.1682 39.0826 35.1682C38.9567 35.1683 38.832 35.143 38.7157 35.0938C38.5993 35.0445 38.4937 34.9723 38.4047 34.8812C38.3158 34.79 38.2453 34.6819 38.1973 34.5629C38.1494 34.4439 38.1249 34.3163 38.1252 34.1876V28.3068C38.1253 26.3509 37.4896 24.4504 36.3183 22.9039C35.1469 21.3574 33.5061 20.2526 31.6538 19.7631V18.7509C31.6597 18.4575 31.6083 18.1659 31.5025 17.8931C31.3968 17.6202 31.2388 17.3717 31.0379 17.1621C30.8371 16.9525 30.5973 16.7859 30.3327 16.6723C30.068 16.5586 29.7839 16.5 29.4968 16.5C29.2098 16.5 28.9256 16.5586 28.661 16.6723C28.3964 16.7859 28.1566 16.9525 27.9557 17.1621C27.7548 17.3717 27.5969 17.6202 27.4911 17.8931C27.3854 18.1659 27.3339 18.4575 27.3398 18.7509L27.3462 19.7631ZM26.1479 40.0693H32.8594C32.8594 40.9792 32.5058 41.8518 31.8765 42.4952C31.2472 43.1386 30.3936 43.5 29.5036 43.5C28.6136 43.5 27.7601 43.1386 27.1308 42.4952C26.5015 41.8518 26.1479 40.9792 26.1479 40.0693Z" fill="#FF8E29"/>
</g>
</svg>
