<svg width="15" height="15" viewBox="0 0 25 24" fill="none" xmlns="http://www.w3.org/2000/svg">
<g id="Group 91">
<path id="Path 137" d="M11.3923 19.4686H13.6903C13.8159 19.4688 13.9403 19.4442 14.0564 19.3963C14.1724 19.3483 14.2779 19.2779 14.3667 19.1891C14.4555 19.1003 14.5259 18.9949 14.5738 18.8788C14.6218 18.7627 14.6463 18.6384 14.6461 18.5128V17.0914C14.6465 16.966 14.6221 16.8417 14.5743 16.7257C14.5266 16.6097 14.4564 16.5043 14.3679 16.4154C14.2793 16.3266 14.1741 16.256 14.0583 16.2079C13.9425 16.1597 13.8183 16.1349 13.6929 16.1348H11.3949C11.2691 16.1342 11.1444 16.1585 11.0281 16.2063C10.9117 16.2541 10.8059 16.3245 10.7169 16.4133C10.6278 16.5021 10.5572 16.6077 10.5091 16.7239C10.461 16.8402 10.4363 16.9648 10.4365 17.0906V18.5119C10.44 18.7644 10.5418 19.0056 10.7203 19.1842C10.8988 19.3628 11.1398 19.4648 11.3923 19.4686Z" fill="black"/>
<path id="Path 138" d="M5.47458 19.4686H7.77258C7.89816 19.4688 8.02255 19.4442 8.13861 19.3963C8.25468 19.3483 8.36013 19.2779 8.44893 19.1891C8.53773 19.1003 8.60812 18.9949 8.65608 18.8788C8.70403 18.7627 8.7286 18.6384 8.72838 18.5128V17.0914C8.72871 16.966 8.70431 16.8417 8.65657 16.7257C8.60882 16.6097 8.53867 16.5043 8.45014 16.4154C8.3616 16.3266 8.2564 16.256 8.14058 16.2079C8.02475 16.1597 7.90057 16.1349 7.77513 16.1348H5.47713C5.35134 16.1342 5.22667 16.1585 5.11032 16.2063C4.99396 16.2541 4.8882 16.3245 4.79913 16.4133C4.71006 16.5021 4.63944 16.6077 4.59132 16.7239C4.54321 16.8402 4.51856 16.9648 4.51878 17.0906V18.5119C4.516 18.6382 4.53881 18.7638 4.58585 18.8811C4.63288 18.9984 4.70317 19.1049 4.79247 19.1943C4.88178 19.2837 4.98825 19.354 5.10548 19.4012C5.2227 19.4483 5.34826 19.4712 5.47458 19.4686Z" fill="black"/>
<path id="Path 139" d="M17.3356 19.4686H19.6336C19.7591 19.4688 19.8835 19.4442 19.9996 19.3963C20.1157 19.3483 20.2211 19.2779 20.3099 19.1891C20.3987 19.1003 20.4691 18.9949 20.5171 18.8788C20.565 18.7627 20.5896 18.6384 20.5894 18.5128V17.0914C20.5897 16.966 20.5653 16.8417 20.5175 16.7257C20.4698 16.6097 20.3997 16.5043 20.3111 16.4154C20.2226 16.3266 20.1174 16.256 20.0016 16.2079C19.8857 16.1597 19.7615 16.1349 19.6361 16.1348H17.3381C17.2123 16.1342 17.0877 16.1585 16.9713 16.2063C16.8549 16.2541 16.7492 16.3245 16.6601 16.4133C16.571 16.5021 16.5004 16.6077 16.4523 16.7239C16.4042 16.8402 16.3795 16.9648 16.3798 17.0906V18.5119C16.3794 18.6376 16.4039 18.7621 16.4518 18.8782C16.4997 18.9944 16.5701 19.0999 16.6589 19.1888C16.7477 19.2777 16.8532 19.3482 16.9693 19.3962C17.0855 19.4442 17.2099 19.4688 17.3356 19.4686Z" fill="black"/>
<path id="Path 140" d="M11.3923 14.2996H13.6903C13.8159 14.2999 13.9403 14.2753 14.0564 14.2273C14.1724 14.1794 14.2779 14.109 14.3667 14.0202C14.4555 13.9314 14.5259 13.8259 14.5738 13.7099C14.6218 13.5938 14.6463 13.4694 14.6461 13.3438V11.9225C14.6465 11.797 14.6221 11.6728 14.5743 11.5568C14.5266 11.4408 14.4564 11.3353 14.3679 11.2465C14.2793 11.1576 14.1741 11.0871 14.0583 11.0389C13.9425 10.9908 13.8183 10.9659 13.6929 10.9658H11.3949C11.2691 10.9653 11.1444 10.9896 11.0281 11.0374C10.9117 11.0852 10.8059 11.1555 10.7169 11.2444C10.6278 11.3332 10.5572 11.4388 10.5091 11.555C10.461 11.6712 10.4363 11.7958 10.4365 11.9216V13.343C10.4446 13.594 10.5479 13.8325 10.7254 14.0102C10.9029 14.1879 11.1413 14.2913 11.3923 14.2996Z" fill="black"/>
<path id="Path 141" d="M5.47448 14.2996H7.77248C7.89806 14.2999 8.02245 14.2753 8.13851 14.2273C8.25458 14.1794 8.36003 14.109 8.44883 14.0202C8.53763 13.9314 8.60802 13.8259 8.65598 13.7099C8.70393 13.5938 8.7285 13.4694 8.72828 13.3438V11.9225C8.72861 11.797 8.70421 11.6728 8.65647 11.5568C8.60872 11.4408 8.53857 11.3353 8.45003 11.2465C8.36149 11.1576 8.2563 11.0871 8.14048 11.0389C8.02465 10.9908 7.90047 10.9659 7.77503 10.9658H5.47703C5.35124 10.9653 5.22657 10.9896 5.11021 11.0374C4.99385 11.0852 4.8881 11.1555 4.79903 11.2444C4.70996 11.3332 4.63934 11.4388 4.59122 11.555C4.54311 11.6712 4.51845 11.7958 4.51868 11.9216V13.343C4.51834 13.4686 4.54283 13.5931 4.59073 13.7093C4.63864 13.8254 4.70901 13.931 4.79782 14.0199C4.88663 14.1088 4.99213 14.1792 5.10825 14.2273C5.22437 14.2753 5.34883 14.2999 5.47448 14.2996Z" fill="black"/>
<path id="Path 142" d="M17.3357 14.2996H19.6337C19.7593 14.2999 19.8836 14.2753 19.9997 14.2273C20.1158 14.1794 20.2212 14.109 20.31 14.0202C20.3988 13.9314 20.4692 13.8259 20.5172 13.7099C20.5651 13.5938 20.5897 13.4694 20.5895 13.3438V11.9225C20.5898 11.797 20.5654 11.6728 20.5177 11.5568C20.4699 11.4408 20.3998 11.3353 20.3112 11.2465C20.2227 11.1576 20.1175 11.0871 20.0017 11.0389C19.8859 10.9908 19.7617 10.9659 19.6362 10.9658H17.3382C17.2124 10.9653 17.0878 10.9896 16.9714 11.0374C16.8551 11.0852 16.7493 11.1555 16.6602 11.2444C16.5712 11.3332 16.5005 11.4388 16.4524 11.555C16.4043 11.6712 16.3797 11.7958 16.3799 11.9216V13.343C16.3836 13.5954 16.4855 13.8364 16.6639 14.015C16.8423 14.1936 17.0833 14.2957 17.3357 14.2996Z" fill="black"/>
<path id="Path 143" d="M21.7554 2.46389H20.1528V3.49714C20.1584 3.77896 20.1078 4.05908 20.0038 4.32109C19.8999 4.58311 19.7447 4.82175 19.5474 5.02306C19.3501 5.22437 19.1146 5.38429 18.8547 5.49346C18.5949 5.60264 18.3158 5.65887 18.0339 5.65887C17.752 5.65887 17.473 5.60264 17.2131 5.49346C16.9532 5.38429 16.7178 5.22437 16.5204 5.02306C16.3231 4.82175 16.168 4.58311 16.064 4.32109C15.9601 4.05908 15.9094 3.77896 15.9151 3.49714V2.46389H9.19641V3.49714C9.20206 3.77896 9.15143 4.05908 9.04749 4.32109C8.94355 4.58311 8.78837 4.82175 8.59106 5.02306C8.39375 5.22437 8.15826 5.38429 7.89838 5.49346C7.6385 5.60264 7.35945 5.65887 7.07757 5.65887C6.79569 5.65887 6.51665 5.60264 6.25677 5.49346C5.99689 5.38429 5.7614 5.22437 5.56409 5.02306C5.36677 4.82175 5.2116 4.58311 5.10766 4.32109C5.00371 4.05908 4.95308 3.77896 4.95873 3.49714V2.46389H3.35609C2.95186 2.46242 2.55133 2.54097 2.17759 2.69498C1.80384 2.849 1.46427 3.07545 1.17843 3.36129C0.892593 3.64713 0.666141 3.9867 0.512123 4.36045C0.358104 4.73419 0.279564 5.13472 0.281026 5.53895V20.6564C0.283048 21.4713 0.607677 22.2523 1.18393 22.8286C1.76017 23.4048 2.54115 23.7294 3.35609 23.7315H21.7554C22.5703 23.7294 23.3513 23.4048 23.9276 22.8286C24.5038 22.2523 24.8285 21.4713 24.8305 20.6564V5.53895C24.8319 5.13472 24.7534 4.73419 24.5994 4.36045C24.4454 3.9867 24.2189 3.64713 23.9331 3.36129C23.6472 3.07545 23.3077 2.849 22.9339 2.69498C22.5602 2.54097 22.1596 2.46242 21.7554 2.46389ZM22.4789 20.63C22.4793 20.7218 22.4616 20.8127 22.4266 20.8976C22.3917 20.9825 22.3403 21.0596 22.2754 21.1245C22.2105 21.1894 22.1334 21.2408 22.0486 21.2757C21.9637 21.3106 21.8727 21.3284 21.7809 21.3279H3.35609C3.26431 21.3284 3.17336 21.3106 3.08848 21.2757C3.0036 21.2408 2.92648 21.1894 2.86159 21.1245C2.79669 21.0596 2.7453 20.9825 2.71039 20.8976C2.67547 20.8127 2.65773 20.7218 2.65818 20.63V9.10255H22.4789V20.63Z" fill="black"/>
<path id="Path 144" d="M7.08058 4.68597C7.23728 4.68676 7.39258 4.65648 7.53751 4.59687C7.68243 4.53727 7.8141 4.44953 7.9249 4.33873C8.03571 4.22793 8.12344 4.09626 8.18305 3.95133C8.24265 3.80641 8.27293 3.65111 8.27214 3.49441V1.53686C8.25084 1.23617 8.11636 0.954725 7.8958 0.749241C7.67525 0.543757 7.38501 0.429504 7.08356 0.429504C6.78212 0.429504 6.49188 0.543757 6.27132 0.749241C6.05077 0.954725 5.91629 1.23617 5.89499 1.53686V3.49441C5.892 3.65121 5.92059 3.807 5.97904 3.95252C6.03749 4.09804 6.12461 4.23032 6.23522 4.34149C6.34583 4.45266 6.47767 4.54044 6.6229 4.59962C6.76813 4.6588 6.92378 4.68817 7.08058 4.68597Z" fill="black"/>
<path id="Path 145" d="M18.0369 4.68597C18.1936 4.68676 18.3489 4.65648 18.4938 4.59687C18.6388 4.53727 18.7704 4.44953 18.8812 4.33873C18.992 4.22793 19.0798 4.09626 19.1394 3.95133C19.199 3.80641 19.2293 3.65111 19.2285 3.49441V1.53686C19.2072 1.23617 19.0727 0.954725 18.8521 0.749241C18.6316 0.543757 18.3413 0.429504 18.0399 0.429504C17.7385 0.429504 17.4482 0.543757 17.2277 0.749241C17.0071 0.954725 16.8726 1.23617 16.8513 1.53686V3.49441C16.854 3.80859 16.9795 4.10923 17.2011 4.33195C17.4227 4.55467 17.7228 4.68175 18.0369 4.68597Z" fill="black"/>
</g>
</svg>
