<svg width="50" height="50" viewBox="0 0 85 85" fill="none" xmlns="http://www.w3.org/2000/svg">
<g id="Group 1261154019">
<rect id="Rectangle 34624281" width="85" height="85" rx="10" fill="#FF8E29"/>
<g id="Mask group">
<mask id="mask0_32_481" style="mask-type:alpha" maskUnits="userSpaceOnUse" x="22" y="22" width="41" height="41">
<rect id="Rectangle 34624270" x="22.5" y="22.5" width="40" height="40" fill="#D9D9D9"/>
</mask>
<g mask="url(#mask0_32_481)">
<path id="Vector" fill-rule="evenodd" clip-rule="evenodd" d="M62.5 56.2495C62.5 57.347 61.375 58.7495 60 58.7495H42.4875C41.14 58.7495 40.0025 57.632 40 56.252H25C23.65 56.252 22.5 54.8495 22.5 53.752C22.5 47.167 30 43.752 30 43.752C30 43.752 30.5725 42.7295 30 41.252C27.8975 39.6995 27.355 39.777 27.5 33.752C27.645 27.7045 30.9175 26.252 33.75 26.252C36.5825 26.252 39.855 27.702 40 33.752C40.145 39.777 39.6025 39.6995 37.5 41.252C36.9275 42.727 37.5 43.752 37.5 43.752C37.5 43.752 41.3725 45.5295 43.55 48.972C45.49 47.1745 47.5 46.2495 47.5 46.2495C47.5 46.2495 48.0725 45.227 47.5 43.7495C45.3975 42.1995 44.855 42.2745 45 36.2495C45.145 30.202 48.4175 28.7495 51.25 28.7495C54.0825 28.7495 57.3425 30.202 57.4875 36.2495C57.635 42.2745 57.0925 42.1995 54.9875 43.7495C54.415 45.2245 54.9875 46.2495 54.9875 46.2495C54.9875 46.2495 62.5 49.6645 62.5 56.2495Z" fill="white"/>
</g>
</g>
</g>
</svg>
