<svg width="23" height="25" viewBox="0 0 27 27" fill="none" xmlns="http://www.w3.org/2000/svg">
<g id="Group 1261154135">
<g id="Group">
<path id="Vector" d="M26.6701 17.247L24.8509 16.6406C24.6908 16.0188 24.4458 15.4326 24.1262 14.8934L24.9843 13.1771C25.0771 12.9915 25.0407 12.7673 24.8939 12.6206L24.0217 11.7484C23.875 11.6016 23.6508 11.5652 23.4652 11.658L21.7489 12.5161C21.2097 12.1965 20.6235 11.9515 20.0017 11.7914L19.3953 9.97223C19.3297 9.77536 19.1455 9.64258 18.938 9.64258H17.7043C17.4968 9.64258 17.3126 9.77536 17.247 9.97223L16.6406 11.7914C16.0188 11.9515 15.4326 12.1965 14.8934 12.5161L13.1771 11.658C12.9915 11.5652 12.7673 11.6016 12.6206 11.7484L11.7484 12.6206C11.6016 12.7673 11.5652 12.9915 11.658 13.1771L12.5161 14.8934C12.1965 15.4326 11.9515 16.0188 11.7914 16.6406L9.97223 17.247C9.77536 17.3126 9.64258 17.4968 9.64258 17.7043V18.938C9.64258 19.1455 9.77536 19.3297 9.97223 19.3953L11.7914 20.0017C11.9515 20.6235 12.1965 21.2097 12.5161 21.7489L11.658 23.4652C11.5652 23.6508 11.6016 23.875 11.7484 24.0217L12.6206 24.8939C12.7673 25.0407 12.9915 25.0771 13.1771 24.9843L14.8934 24.1262C15.4326 24.4458 16.0188 24.6908 16.6406 24.8509L17.247 26.67C17.3126 26.8669 17.4968 26.9997 17.7043 26.9997H18.938C19.1455 26.9997 19.3297 26.8669 19.3953 26.67L20.0017 24.8509C20.6235 24.6908 21.2097 24.4458 21.7489 24.1262L23.4652 24.9843C23.6508 25.0771 23.875 25.0407 24.0217 24.8939L24.8939 24.0217C25.0407 23.875 25.0771 23.6508 24.9843 23.4652L24.1262 21.7489C24.4458 21.2097 24.6908 20.6235 24.8509 20.0017L26.6701 19.3953C26.8669 19.3297 26.9997 19.1455 26.9997 18.938V17.7043C26.9997 17.4968 26.8669 17.3126 26.6701 17.247ZM18.3211 23.1426C15.6584 23.1426 13.4997 20.9839 13.4997 18.3211C13.4997 15.6584 15.6584 13.4997 18.3211 13.4997C20.9839 13.4997 23.1426 15.6584 23.1426 18.3211C23.1426 20.9839 20.9839 23.1426 18.3211 23.1426Z" fill="#6F6F6F"/>
<path id="Vector_2" d="M12.5366 0H5.78655C5.25399 0 4.82227 0.431725 4.82227 0.964286V3.85714H13.5008V0.964286C13.5008 0.431725 13.0691 0 12.5366 0Z" fill="#6F6F6F"/>
<path id="Vector_3" d="M18.3211 18.321C19.3863 18.321 20.2497 17.4576 20.2497 16.3924C20.2497 15.3273 19.3863 14.4639 18.3211 14.4639C17.256 14.4639 16.3926 15.3273 16.3926 16.3924C16.3926 17.4576 17.256 18.321 18.3211 18.321Z" fill="#6F6F6F"/>
<path id="Vector_4" d="M21.2134 20.8456V20.2499C21.2134 19.1847 20.35 18.3213 19.2849 18.3213H17.3563C16.2912 18.3213 15.4277 19.1847 15.4277 20.2499V20.8456C16.1353 21.6555 17.1631 22.1784 18.3206 22.1784C19.478 22.1784 20.5059 21.6555 21.2134 20.8456Z" fill="#6F6F6F"/>
<path id="Vector_5" d="M17.3571 1.92871H14.4643V3.85728C14.4643 4.38981 14.0326 4.82157 13.5 4.82157H4.82143C4.28885 4.82157 3.85714 4.38981 3.85714 3.85728V1.92871H0.964286C0.431704 1.92871 0 2.36041 0 2.893V26.0359C0 26.5684 0.431704 27.0001 0.964286 27.0001H16.3458C16.3425 26.991 16.3357 26.984 16.3326 26.9747L15.8853 25.6328C15.5383 25.517 15.2002 25.3776 14.8744 25.2138L13.6092 25.8475C13.4077 25.9473 13.1845 26.0001 12.9618 26.0001C12.5743 26.0001 12.2108 25.8494 11.9382 25.5754L11.0667 24.7043C10.6255 24.2617 10.5172 23.5912 10.7955 23.0347L11.4288 21.7681C11.2654 21.4423 11.1255 21.1052 11.0102 20.7586L9.66734 20.3104C9.07549 20.1127 8.67857 19.5608 8.67857 18.9384V17.7048C8.67857 17.0823 9.07549 16.5305 9.6664 16.3327L11.0102 15.8845C11.1255 15.5379 11.2654 15.2008 11.4288 14.875L10.7955 13.6084C10.5172 13.0519 10.6255 12.3814 11.0657 11.9398L11.9392 11.0668C12.2108 10.7937 12.5743 10.6431 12.9618 10.6431C13.1845 10.6431 13.4077 10.6958 13.6069 10.7947L14.8744 11.4294C15.2002 11.2655 15.5383 11.1262 15.8853 11.0103L16.3326 9.66748C16.5294 9.0761 17.0808 8.67871 17.7046 8.67871H18.3214V2.893C18.3214 2.36041 17.8897 1.92871 17.3571 1.92871ZM5.64446 22.0375L3.71589 23.966C3.62172 24.0602 3.49836 24.1073 3.375 24.1073C3.25164 24.1073 3.12828 24.0602 3.03411 23.966L2.06982 23.0017C1.88149 22.8134 1.88149 22.5083 2.06982 22.32C2.25816 22.1316 2.56327 22.1316 2.7516 22.32L3.375 22.9434L4.96268 21.3557C5.15102 21.1673 5.45612 21.1673 5.64446 21.3557C5.8328 21.544 5.8328 21.8491 5.64446 22.0375ZM5.64446 17.216L3.71589 19.1446C3.62172 19.2388 3.49836 19.2859 3.375 19.2859C3.25164 19.2859 3.12828 19.2388 3.03411 19.1446L2.06982 18.1803C1.88149 17.992 1.88149 17.6869 2.06982 17.4985C2.25816 17.3102 2.56327 17.3102 2.7516 17.4985L3.375 18.1219L4.96268 16.5342C5.15102 16.3459 5.45612 16.3459 5.64446 16.5342C5.8328 16.7226 5.8328 17.0277 5.64446 17.216ZM5.64446 12.3946L3.71589 14.3232C3.62172 14.4173 3.49836 14.4644 3.375 14.4644C3.25164 14.4644 3.12828 14.4173 3.03411 14.3232L2.06982 13.3589C1.88149 13.1705 1.88149 12.8654 2.06982 12.6771C2.25816 12.4888 2.56327 12.4888 2.7516 12.6771L3.375 13.3005L4.96268 11.7128C5.15102 11.5245 5.45612 11.5245 5.64446 11.7128C5.8328 11.9012 5.8328 12.2063 5.64446 12.3946ZM5.64446 7.57317L3.71589 9.50174C3.62172 9.59591 3.49836 9.643 3.375 9.643C3.25164 9.643 3.12828 9.59591 3.03411 9.50174L2.06982 8.53746C1.88149 8.34912 1.88149 8.04402 2.06982 7.85568C2.25816 7.66734 2.56327 7.66734 2.7516 7.85568L3.375 8.47907L4.96268 6.89139C5.15102 6.70306 5.45612 6.70306 5.64446 6.89139C5.8328 7.07973 5.8328 7.38484 5.64446 7.57317Z" fill="#6F6F6F"/>
</g>
</g>
</svg>
