<svg width="23" height="23" viewBox="0 0 28 28" fill="none" xmlns="http://www.w3.org/2000/svg">
<g id="Mask group">
<g id="Group 1261154140">
<g id="Group 1261154139">
<g id="Group">
<path id="Vector" fill-rule="evenodd" clip-rule="evenodd" d="M0.800781 5.85137H27.4633V4.16387C27.4633 3.20937 27.073 2.34453 26.4455 1.71699C25.818 1.08945 24.9531 0.699219 23.9986 0.699219H4.2707C3.31621 0.699219 2.45137 1.08945 1.82383 1.71699C1.19629 2.34453 0.806055 3.20937 0.806055 4.16387V5.85137H0.800781ZM9.84473 2.58711C10.1242 2.58711 10.3721 2.69785 10.5566 2.88242C10.7412 3.06699 10.852 3.31484 10.852 3.59434C10.852 3.87383 10.7412 4.12168 10.5566 4.30625C10.3721 4.49082 10.1242 4.60156 9.84473 4.60156C9.56523 4.60156 9.31738 4.49082 9.13281 4.30625C8.94824 4.12168 8.8375 3.87383 8.8375 3.59434C8.8375 3.31484 8.94824 3.06699 9.13281 2.88242C9.31738 2.69785 9.56523 2.58711 9.84473 2.58711ZM7.02344 2.58711C7.30293 2.58711 7.55078 2.69785 7.73535 2.88242C7.91992 3.06699 8.03066 3.31484 8.03066 3.59434C8.03066 3.87383 7.91992 4.12168 7.73535 4.30625C7.55078 4.49082 7.30293 4.60156 7.02344 4.60156C6.74395 4.60156 6.49609 4.49082 6.31152 4.30625C6.12695 4.12168 6.01621 3.87383 6.01621 3.59434C6.01621 3.31484 6.12695 3.06699 6.31152 2.88242C6.49609 2.69785 6.74395 2.58711 7.02344 2.58711ZM4.20215 2.58711C4.48164 2.58711 4.72949 2.69785 4.91406 2.88242C5.09863 3.06699 5.20937 3.31484 5.20937 3.59434C5.20937 3.87383 5.09863 4.12168 4.91406 4.30625C4.72949 4.49082 4.48164 4.60156 4.20215 4.60156C3.92266 4.60156 3.6748 4.49082 3.49023 4.30625C3.30566 4.12168 3.19492 3.87383 3.19492 3.59434C3.19492 3.31484 3.30566 3.06699 3.49023 2.88242C3.6748 2.69785 3.92266 2.58711 4.20215 2.58711Z" fill="#6F6F6F"/>
<path id="Vector_2" fill-rule="evenodd" clip-rule="evenodd" d="M27.4633 6.27148H0.800781V24.2328C0.800781 25.1873 1.19102 26.0521 1.81855 26.6797C2.44609 27.3072 3.31094 27.6975 4.26543 27.6975H23.9934C24.9479 27.6975 25.8127 27.3072 26.4402 26.6797C27.0678 26.0521 27.458 25.1873 27.458 24.2328V6.27148H27.4633ZM15.1182 19.8453V10.2846C15.1182 10.0525 15.308 9.8627 15.54 9.8627H25.1008C25.3328 9.8627 25.5227 10.0525 25.5227 10.2846V19.8453C25.5227 20.0773 25.3328 20.2672 25.1008 20.2672H15.54C15.308 20.2672 15.1182 20.0773 15.1182 19.8453ZM3.23711 22.8406H25.027C25.143 22.8406 25.2379 22.9355 25.2379 23.0516C25.2379 23.1676 25.143 23.2625 25.027 23.2625H3.23711C3.12109 23.2625 3.02617 23.1676 3.02617 23.0516C3.02617 22.9355 3.12109 22.8406 3.23711 22.8406ZM9.09062 9.87852H12.8242C13.0563 9.87852 13.2461 10.0684 13.2461 10.3004V14.034C13.2461 14.266 13.0563 14.4559 12.8242 14.4559H9.09062C8.85859 14.4559 8.66875 14.266 8.66875 14.034V10.3004C8.66875 10.0684 8.85859 9.87852 9.09062 9.87852ZM7.32402 10.3004V14.034C7.32402 14.266 7.13418 14.4559 6.90215 14.4559H3.16855C2.93652 14.4559 2.74668 14.266 2.74668 14.034V10.3004C2.74668 10.0684 2.93652 9.87852 3.16855 9.87852H6.90215C7.13418 9.87852 7.32402 10.0684 7.32402 10.3004ZM3.19492 15.8006H12.8137C13.0457 15.8006 13.2355 15.9904 13.2355 16.2225V19.8506C13.2355 20.0826 13.0457 20.2725 12.8137 20.2725H3.19492C2.96289 20.2725 2.77305 20.0826 2.77305 19.8506V16.2225C2.77305 15.9904 2.96289 15.8006 3.19492 15.8006Z" fill="#6F6F6F"/>
</g>
</g>
</g>
</g>
</svg>
