<svg width="23" height="25" viewBox="0 0 29 27" fill="none" xmlns="http://www.w3.org/2000/svg">
<g id="Mask group">
<g id="Group 1261154141">
<path id="Vector" d="M2.4005 21.6611H5.51436V26.3942C5.51436 26.6263 5.65024 26.8358 5.86538 26.9434C5.9503 26.9774 6.03523 27 6.12015 27C6.25603 27 6.39757 26.9547 6.5108 26.8585L12.6309 21.6725H26.4225C27.7473 21.6725 28.823 20.5911 28.823 19.272V2.4005C28.823 1.0757 27.7473 0 26.4225 0H2.4005C1.0757 0 0 1.0757 0 2.4005V19.272C0 20.5798 1.0757 21.6611 2.4005 21.6611ZM19.3229 9.16041C19.3852 8.97924 19.5381 8.84336 19.7306 8.81505L21.1912 8.60558L21.8423 7.28077C22.0122 6.92975 22.5783 6.92975 22.7538 7.28077L23.4049 8.60558L24.8656 8.81505C25.0581 8.8377 25.2166 8.97924 25.2732 9.16041C25.3355 9.34158 25.2845 9.5454 25.1487 9.67561L24.0843 10.706L24.3391 12.1667C24.3674 12.3535 24.2938 12.546 24.1352 12.6593C24.0503 12.7272 23.9428 12.7555 23.8352 12.7555C23.7559 12.7555 23.671 12.7385 23.6031 12.6989L22.2952 12.0138L20.9874 12.6989C20.8232 12.7895 20.6138 12.7725 20.4552 12.6593C20.2967 12.546 20.2231 12.3535 20.2514 12.1667L20.5062 10.706L19.4418 9.67561C19.3116 9.5454 19.2606 9.34158 19.3229 9.16041ZM11.4307 9.16041C11.493 8.97924 11.6458 8.84336 11.8383 8.81505L13.299 8.60558L13.9558 7.28077C14.1199 6.92975 14.6861 6.92975 14.8616 7.28077L15.5127 8.60558L16.979 8.81505C17.1659 8.8377 17.33 8.97924 17.381 9.16041C17.4433 9.34158 17.3923 9.5454 17.2564 9.67561L16.1977 10.706L16.4468 12.1667C16.4808 12.3535 16.4016 12.546 16.243 12.6593C16.0902 12.7725 15.8863 12.7895 15.7108 12.6989L14.4087 12.0138L13.1065 12.6989C13.0329 12.7385 12.948 12.7555 12.8687 12.7555C12.7612 12.7555 12.6593 12.7272 12.5687 12.6593C12.4158 12.546 12.3365 12.3535 12.3649 12.1667L12.6196 10.706L11.5609 9.67561C11.4194 9.5454 11.3741 9.34158 11.4307 9.16041ZM3.5498 9.16041C3.60642 8.97924 3.76494 8.84336 3.95177 8.81505L5.41812 8.60558L6.0692 7.28077C6.23904 6.92975 6.8052 6.92975 6.97505 7.28077L7.63179 8.60558L9.09247 8.81505C9.28497 8.8377 9.44349 8.97924 9.5001 9.16041C9.55672 9.34158 9.51143 9.5454 9.36989 9.67561L8.31118 10.706L8.56028 12.1667C8.59425 12.3535 8.51499 12.546 8.36213 12.6593C8.27154 12.7272 8.16964 12.7555 8.06207 12.7555C7.98281 12.7555 7.89788 12.7385 7.82428 12.6989L6.52212 12.0138L5.2143 12.6989C5.04445 12.7895 4.83498 12.7725 4.68211 12.6593C4.52359 12.546 4.44433 12.3535 4.4783 12.1667L4.72741 10.706L3.66869 9.67561C3.53848 9.5454 3.48752 9.34158 3.5498 9.16041Z" fill="#6F6F6F"/>
</g>
</g>
</svg>
