<svg width="23" height="23" viewBox="0 0 23 23" fill="none" xmlns="http://www.w3.org/2000/svg">
<mask id="mask0_32_360" style="mask-type:alpha" maskUnits="userSpaceOnUse" x="0" y="0" width="23" height="23">
<rect width="23" height="23" fill="#D9D9D9"/>
</mask>
<g mask="url(#mask0_32_360)">
<path d="M1.27778 12.7778H8.94444C9.64722 12.7778 10.2222 12.2028 10.2222 11.5V1.27778C10.2222 0.575 9.64722 0 8.94444 0H1.27778C0.575 0 0 0.575 0 1.27778V11.5C0 12.2028 0.575 12.7778 1.27778 12.7778ZM1.27778 23H8.94444C9.64722 23 10.2222 22.425 10.2222 21.7222V16.6111C10.2222 15.9083 9.64722 15.3333 8.94444 15.3333H1.27778C0.575 15.3333 0 15.9083 0 16.6111V21.7222C0 22.425 0.575 23 1.27778 23ZM14.0556 23H21.7222C22.425 23 23 22.425 23 21.7222V11.5C23 10.7972 22.425 10.2222 21.7222 10.2222H14.0556C13.3528 10.2222 12.7778 10.7972 12.7778 11.5V21.7222C12.7778 22.425 13.3528 23 14.0556 23ZM12.7778 1.27778V6.38889C12.7778 7.09167 13.3528 7.66667 14.0556 7.66667H21.7222C22.425 7.66667 23 7.09167 23 6.38889V1.27778C23 0.575 22.425 0 21.7222 0H14.0556C13.3528 0 12.7778 0.575 12.7778 1.27778Z" fill="#6F6F6F"/>
</g>
</svg>
