<svg width="25" height="25" viewBox="0 0 31 32" fill="none" xmlns="http://www.w3.org/2000/svg">
<path d="M1.70007 4.0769H19.8681C20.3197 4.0769 20.7529 3.89748 21.0723 3.5781C21.3916 3.25873 21.5711 2.82556 21.5711 2.3739C21.5711 1.92223 21.3916 1.48907 21.0723 1.1697C20.7529 0.850321 20.3197 0.670898 19.8681 0.670898H1.70007C1.24841 0.670898 0.815242 0.850321 0.495867 1.1697C0.176493 1.48907 -0.00292969 1.92223 -0.00292969 2.3739C-0.00292969 2.82556 0.176493 3.25873 0.495867 3.5781C0.815242 3.89748 1.24841 4.0769 1.70007 4.0769ZM7.03335e-05 15.9979C7.03335e-05 15.547 0.179177 15.1146 0.497989 14.7958C0.816801 14.477 1.2492 14.2979 1.70007 14.2979H28.9511C29.1747 14.2979 29.3962 14.3419 29.6028 14.4275C29.8094 14.5131 29.9971 14.6386 30.1553 14.7967C30.3134 14.9548 30.4389 15.1426 30.5244 15.3492C30.61 15.5558 30.6541 15.7773 30.6541 16.0009C30.6541 16.2245 30.61 16.446 30.5244 16.6526C30.4389 16.8592 30.3134 17.047 30.1553 17.2051C29.9971 17.3632 29.8094 17.4887 29.6028 17.5743C29.3962 17.6598 29.1747 17.7039 28.9511 17.7039H1.70007C1.2492 17.7039 0.816801 17.5248 0.497989 17.206C0.179177 16.8872 7.03335e-05 16.4548 7.03335e-05 16.0039V15.9979ZM7.03335e-05 29.6219C7.03335e-05 29.171 0.179177 28.7386 0.497989 28.4198C0.816801 28.101 1.2492 27.9219 1.70007 27.9219H19.8681C20.3197 27.9219 20.7529 28.1013 21.0723 28.4207C21.3916 28.7401 21.5711 29.1732 21.5711 29.6249C21.5711 30.0766 21.3916 30.5097 21.0723 30.8291C20.7529 31.1485 20.3197 31.3279 19.8681 31.3279H1.70007C1.2492 31.3279 0.816801 31.1488 0.497989 30.83C0.179177 30.5112 7.03335e-05 30.0788 7.03335e-05 29.6279V29.6219Z" fill="black"/>
</svg>
