<svg width="23" height="25" viewBox="0 0 26 27" fill="none" xmlns="http://www.w3.org/2000/svg">
<g id="Mask group">
<g id="Group 1261154134">
<path id="Vector" fill-rule="evenodd" clip-rule="evenodd" d="M19.9197 23.076L19.3296 22.6836L19.2246 23.4792L19.9185 23.076H19.9197ZM24.6819 17.316L24.5019 17.586L23.9127 18.4698C24.0472 18.463 24.1783 18.4248 24.2954 18.3583C24.4126 18.2917 24.5125 18.1987 24.5872 18.0866C24.6619 17.9745 24.7093 17.8465 24.7257 17.7128C24.742 17.5791 24.7268 17.4434 24.6813 17.3166L24.6819 17.316ZM23.2896 16.4229L24.1746 17.0127L24.9996 15.7764C25.0047 15.7674 25.0103 15.7587 25.0164 15.7503C25.0374 15.7126 25.0443 15.6687 25.0356 15.6264C25.0276 15.5846 25.0046 15.5471 24.9711 15.5208C24.9621 15.5153 24.9534 15.5093 24.945 15.5028L24.3723 15.12C24.3527 15.1071 24.3308 15.0982 24.3078 15.0937C24.2848 15.0893 24.2612 15.0895 24.2382 15.0942C24.2155 15.0985 24.1939 15.1072 24.1746 15.1199C24.1553 15.1326 24.1387 15.1489 24.1257 15.168L23.2896 16.4229ZM20.3994 22.6776L20.3946 22.6848L19.5096 22.095L20.8896 20.025C20.8976 20.0145 20.9049 20.0035 20.9115 19.992L22.9632 16.914L23.8482 17.5038L23.1882 18.4938C23.1805 18.5038 23.1735 18.5144 23.1672 18.5253L20.4216 22.6443C20.4135 22.6549 20.4061 22.666 20.3994 22.6776ZM7.0038 2.3178C6.8973 2.27356 6.78771 2.23716 6.6759 2.2089C6.60664 2.19778 6.5436 2.16235 6.49808 2.10897C6.45256 2.0556 6.42754 1.98775 6.4275 1.9176V1.4298H5.7594V1.9173C5.75937 1.98328 5.73717 2.04733 5.69637 2.09918C5.65557 2.15103 5.59852 2.18766 5.5344 2.2032C5.301 2.25999 5.0775 2.35162 4.8714 2.475C4.81458 2.51504 4.74545 2.53374 4.67619 2.52781C4.60694 2.52189 4.54199 2.49171 4.4928 2.4426L4.1478 2.0976L3.675 2.5701L4.0197 2.9148C4.06601 2.9614 4.09542 3.02214 4.10324 3.08737C4.11107 3.1526 4.09687 3.21857 4.0629 3.2748C3.93833 3.47893 3.8451 3.7006 3.7863 3.9324C3.77518 4.00166 3.73975 4.0647 3.68637 4.11022C3.633 4.15574 3.56515 4.18076 3.495 4.1808H3.0063V4.8492H3.4935C3.55948 4.84923 3.62353 4.87143 3.67538 4.91223C3.72723 4.95303 3.76386 5.01008 3.7794 5.0742C3.83626 5.30762 3.92799 5.53113 4.0515 5.7372C4.09154 5.79402 4.11024 5.86315 4.10431 5.93241C4.09839 6.00166 4.06821 6.06661 4.0191 6.1158L3.6744 6.4605L4.1469 6.9333L4.4919 6.5883C4.5385 6.54199 4.59924 6.51258 4.66447 6.50476C4.7297 6.49693 4.79567 6.51113 4.8519 6.5451C5.05596 6.66961 5.27752 6.76284 5.5092 6.8217C5.57841 6.83289 5.64138 6.86834 5.68684 6.92171C5.73229 6.97508 5.75727 7.04289 5.7573 7.113V7.6005H6.4257V7.1169C6.42573 7.05092 6.44793 6.98687 6.48873 6.93502C6.52953 6.88317 6.58658 6.84654 6.6507 6.831C6.8841 6.77422 7.10761 6.68259 7.3137 6.5592C7.37052 6.51916 7.43965 6.50046 7.50891 6.50639C7.57816 6.51231 7.64311 6.54249 7.6923 6.5916L8.0373 6.9366L8.5098 6.4638L8.1696 6.12C8.12329 6.0734 8.09388 6.01266 8.08606 5.94743C8.07823 5.88221 8.09243 5.81623 8.1264 5.76C8.25086 5.55506 8.3438 5.33258 8.4021 5.1C8.41329 5.03079 8.44874 4.96782 8.50211 4.92236C8.55548 4.87691 8.62329 4.85193 8.6934 4.8519H9.1806V4.1829H8.6934C8.62742 4.18287 8.56337 4.16067 8.51152 4.11987C8.45967 4.07907 8.42304 4.02202 8.4075 3.9579C8.35063 3.72448 8.2589 3.50097 8.1354 3.2949C8.09536 3.23808 8.07666 3.16895 8.08259 3.09969C8.08851 3.03044 8.11869 2.96549 8.1678 2.9163L8.5125 2.5716L8.0397 2.0991L7.6947 2.4441C7.6481 2.49041 7.58736 2.51982 7.52213 2.52764C7.45691 2.53547 7.39093 2.52127 7.3347 2.4873C7.22923 2.4229 7.1189 2.36683 7.0047 2.3196L7.0038 2.3178ZM7.0179 1.6956C7.0901 1.7192 7.1607 1.7453 7.2297 1.7739C7.2987 1.8025 7.3672 1.834 7.4352 1.8684L7.8315 1.4721C7.88685 1.41679 7.9619 1.38573 8.04015 1.38573C8.1184 1.38573 8.19345 1.41679 8.2488 1.4721L9.1386 2.3619C9.16602 2.38929 9.18778 2.42181 9.20262 2.45762C9.21746 2.49342 9.2251 2.53179 9.2251 2.57055C9.2251 2.60931 9.21746 2.64768 9.20262 2.68348C9.18778 2.71929 9.16602 2.75181 9.1386 2.7792L8.7426 3.1752C8.7768 3.2424 8.8083 3.3109 8.8371 3.3807C8.8659 3.4505 8.892 3.5211 8.9154 3.5925H9.4758C9.55409 3.5925 9.62918 3.6236 9.68454 3.67896C9.7399 3.73432 9.771 3.80941 9.771 3.8877V5.1477C9.771 5.22599 9.7399 5.30108 9.68454 5.35644C9.62918 5.4118 9.55409 5.4429 9.4758 5.4429H8.9154C8.8918 5.5153 8.8657 5.586 8.8371 5.655C8.8085 5.724 8.7769 5.7925 8.7423 5.8605L9.1386 6.2568C9.19391 6.31215 9.22497 6.3872 9.22497 6.46545C9.22497 6.5437 9.19391 6.61875 9.1386 6.6741L8.2488 7.5639C8.19345 7.61921 8.1184 7.65027 8.04015 7.65027C7.9619 7.65027 7.88685 7.61921 7.8315 7.5639L7.4352 7.1676C7.368 7.2018 7.2995 7.2333 7.2297 7.2621C7.1599 7.2909 7.0893 7.317 7.0179 7.3404V7.9011C7.0179 7.97939 6.9868 8.05448 6.93144 8.10984C6.87608 8.1652 6.80099 8.1963 6.7227 8.1963H5.4627C5.38441 8.1963 5.30932 8.1652 5.25396 8.10984C5.1986 8.05448 5.1675 7.97939 5.1675 7.9011V7.3386C5.0953 7.315 5.0247 7.2889 4.9557 7.2603C4.8867 7.2317 4.8182 7.2002 4.7502 7.1658L4.3539 7.5621C4.29855 7.61741 4.2235 7.64847 4.14525 7.64847C4.067 7.64847 3.99195 7.61741 3.9366 7.5621L3.0468 6.6723C2.99149 6.61695 2.96043 6.5419 2.96043 6.46365C2.96043 6.3854 2.99149 6.31035 3.0468 6.255L3.4431 5.8587C3.4089 5.7915 3.3773 5.723 3.3483 5.6532C3.3193 5.5834 3.2932 5.5127 3.27 5.4411H2.7114C2.63311 5.4411 2.55802 5.41 2.50266 5.35464C2.4473 5.29928 2.4162 5.22419 2.4162 5.1459V3.8859C2.4162 3.80761 2.4473 3.73252 2.50266 3.67716C2.55802 3.6218 2.63311 3.5907 2.7114 3.5907H3.2718C3.2954 3.5183 3.3215 3.4476 3.3501 3.3786C3.3787 3.3096 3.4103 3.2411 3.4449 3.1731L3.0486 2.7768C2.99329 2.72145 2.96223 2.6464 2.96223 2.56815C2.96223 2.4899 2.99329 2.41485 3.0486 2.3595L3.9396 1.4718C3.99495 1.41649 4.07 1.38543 4.14825 1.38543C4.2265 1.38543 4.30155 1.41649 4.3569 1.4718L4.7532 1.8681C4.8204 1.8339 4.8889 1.8024 4.9587 1.7736C5.0285 1.7448 5.0991 1.7187 5.1705 1.6953V1.1346C5.1705 1.05631 5.2016 0.981223 5.25696 0.925862C5.31232 0.870502 5.38741 0.8394 5.4657 0.8394H6.7257C6.80399 0.8394 6.87908 0.870502 6.93444 0.925862C6.9898 0.981223 7.0209 1.05631 7.0209 1.1346V1.6953L7.0179 1.6956ZM7.0806 3.5301C7.30873 3.75877 7.45052 4.05947 7.48181 4.38096C7.5131 4.70245 7.43195 5.02484 7.25219 5.29321C7.07243 5.56157 6.80518 5.75931 6.49598 5.85273C6.18677 5.94615 5.85474 5.92947 5.55646 5.80553C5.25817 5.68159 5.01209 5.45807 4.86013 5.17303C4.70817 4.888 4.65974 4.5591 4.72309 4.24236C4.78644 3.92563 4.95766 3.64066 5.20756 3.436C5.45746 3.23135 5.77059 3.11967 6.0936 3.12C6.27699 3.11974 6.45863 3.15574 6.62806 3.22591C6.7975 3.29608 6.95139 3.39905 7.0809 3.5289L7.0806 3.5301ZM6.0933 2.5311C6.55288 2.531 6.99828 2.69026 7.35359 2.98176C7.7089 3.27326 7.95214 3.67895 8.04185 4.12969C8.13155 4.58043 8.06218 5.04834 7.84555 5.45366C7.62892 5.85899 7.27844 6.17665 6.85384 6.35252C6.42924 6.52838 5.95679 6.55157 5.51701 6.41812C5.07722 6.28468 4.69732 6.00286 4.44205 5.62069C4.18677 5.23853 4.07192 4.77967 4.11706 4.3223C4.1622 3.86494 4.36454 3.43739 4.6896 3.1125C4.87382 2.92782 5.09271 2.78135 5.33371 2.68153C5.5747 2.5817 5.83305 2.53048 6.0939 2.5308L6.0933 2.5311ZM11.8029 2.7741C11.7634 2.77536 11.724 2.76866 11.6871 2.7544C11.6502 2.74014 11.6165 2.71861 11.5881 2.69109C11.5597 2.66357 11.5371 2.63061 11.5217 2.59419C11.5062 2.55776 11.4983 2.51861 11.4983 2.47905C11.4983 2.43949 11.5062 2.40034 11.5217 2.36391C11.5371 2.32749 11.5597 2.29453 11.5881 2.26701C11.6165 2.23949 11.6502 2.21796 11.6871 2.2037C11.724 2.18944 11.7634 2.18274 11.8029 2.184H18.708C18.7475 2.18274 18.7869 2.18944 18.8238 2.2037C18.8607 2.21796 18.8944 2.23949 18.9228 2.26701C18.9512 2.29453 18.9738 2.32749 18.9892 2.36391C19.0047 2.40034 19.0126 2.43949 19.0126 2.47905C19.0126 2.51861 19.0047 2.55776 18.9892 2.59419C18.9738 2.63061 18.9512 2.66357 18.9228 2.69109C18.8944 2.71861 18.8607 2.74014 18.8238 2.7544C18.7869 2.76866 18.7475 2.77536 18.708 2.7741H11.8029ZM11.8029 5.2527C11.7634 5.25396 11.724 5.24726 11.6871 5.233C11.6502 5.21874 11.6165 5.19721 11.5881 5.16969C11.5597 5.14217 11.5371 5.10921 11.5217 5.07279C11.5062 5.03636 11.4983 4.99721 11.4983 4.95765C11.4983 4.91809 11.5062 4.87894 11.5217 4.84251C11.5371 4.80609 11.5597 4.77313 11.5881 4.74561C11.6165 4.71809 11.6502 4.69656 11.6871 4.6823C11.724 4.66804 11.7634 4.66134 11.8029 4.6626H18.708C18.7475 4.66134 18.7869 4.66804 18.8238 4.6823C18.8607 4.69656 18.8944 4.71809 18.9228 4.74561C18.9512 4.77313 18.9738 4.80609 18.9892 4.84251C19.0047 4.87894 19.0126 4.91809 19.0126 4.95765C19.0126 4.99721 19.0047 5.03636 18.9892 5.07279C18.9738 5.10921 18.9512 5.14217 18.9228 5.16969C18.8944 5.19721 18.8607 5.21874 18.8238 5.233C18.7869 5.24726 18.7475 5.25396 18.708 5.2527H11.8029ZM11.8029 7.7313C11.7634 7.73256 11.724 7.72586 11.6871 7.7116C11.6502 7.69734 11.6165 7.67581 11.5881 7.64829C11.5597 7.62077 11.5371 7.58781 11.5217 7.55139C11.5062 7.51496 11.4983 7.47581 11.4983 7.43625C11.4983 7.39669 11.5062 7.35754 11.5217 7.32111C11.5371 7.28469 11.5597 7.25173 11.5881 7.22421C11.6165 7.19669 11.6502 7.17516 11.6871 7.1609C11.724 7.14664 11.7634 7.13994 11.8029 7.1412H18.708C18.7475 7.13994 18.7869 7.14664 18.8238 7.1609C18.8607 7.17516 18.8944 7.19669 18.9228 7.22421C18.9512 7.25173 18.9738 7.28469 18.9892 7.32111C19.0047 7.35754 19.0126 7.39669 19.0126 7.43625C19.0126 7.47581 19.0047 7.51496 18.9892 7.55139C18.9738 7.58781 18.9512 7.62077 18.9228 7.64829C18.8944 7.67581 18.8607 7.69734 18.8238 7.7116C18.7869 7.72586 18.7475 7.73256 18.708 7.7313H11.8029ZM3.5496 11.7921C3.51101 11.7277 3.49846 11.651 3.5145 11.5777C3.53055 11.5043 3.57399 11.4399 3.63594 11.3975C3.6979 11.3551 3.7737 11.338 3.84787 11.3496C3.92203 11.3612 3.98897 11.4007 4.035 11.46L4.5858 12.2649L5.7813 10.8741C5.83206 10.8148 5.90431 10.7781 5.98215 10.772C6.05998 10.766 6.13703 10.7911 6.19635 10.8419C6.25567 10.8926 6.29239 10.9649 6.29844 11.0427C6.30448 11.1205 6.27936 11.1976 6.2286 11.2569L4.7886 12.9309C4.75987 12.967 4.72307 12.9958 4.68117 13.015C4.63927 13.0343 4.59344 13.0434 4.54736 13.0417C4.50128 13.0401 4.45624 13.0276 4.41586 13.0053C4.37549 12.983 4.34091 12.9516 4.3149 12.9135L3.5496 11.7921ZM6.7596 10.5195H3.0396C3.02422 10.5194 3.00896 10.5223 2.9947 10.528C2.98045 10.5338 2.96746 10.5423 2.9565 10.5531C2.94566 10.564 2.93708 10.577 2.93127 10.5913C2.92545 10.6055 2.9225 10.6208 2.9226 10.6362V13.1739C2.9225 13.1893 2.92545 13.2046 2.93127 13.2188C2.93708 13.2331 2.94566 13.2461 2.9565 13.257C2.96744 13.2678 2.98041 13.2764 2.99467 13.2822C3.00893 13.2881 3.0242 13.291 3.0396 13.2909H6.7572C6.77266 13.2908 6.78796 13.2877 6.80222 13.2818C6.81647 13.2758 6.82942 13.2671 6.8403 13.2561C6.85109 13.2451 6.85961 13.2322 6.86537 13.2179C6.87114 13.2036 6.87404 13.1884 6.8739 13.173V10.6377C6.87407 10.6104 6.86474 10.5839 6.8475 10.5627L6.8388 10.5543C6.82792 10.5433 6.81497 10.5346 6.80071 10.5286C6.78646 10.5227 6.77116 10.5196 6.7557 10.5195H6.7596ZM3.0396 9.93C2.85256 9.93031 2.67326 10.0047 2.541 10.137L2.5392 10.1388C2.40647 10.2711 2.33169 10.4506 2.3313 10.638V13.1757C2.33158 13.3627 2.40602 13.5421 2.5383 13.6743L2.5401 13.6761C2.67236 13.8088 2.85192 13.8836 3.0393 13.884H6.7572C6.85019 13.884 6.94226 13.8656 7.02813 13.83C7.11401 13.7943 7.19199 13.742 7.2576 13.6761C7.3235 13.6106 7.37584 13.5327 7.41162 13.447C7.44739 13.3612 7.46591 13.2692 7.4661 13.1763V10.6377C7.46619 10.4597 7.399 10.2882 7.278 10.1577C7.2718 10.1501 7.2652 10.1428 7.2582 10.1358C7.19259 10.0699 7.11461 10.0176 7.02873 9.98195C6.94286 9.94627 6.85079 9.9279 6.7578 9.9279L3.0396 9.93ZM8.9118 10.5201C8.87226 10.5214 8.83287 10.5147 8.79598 10.5004C8.75908 10.4861 8.72542 10.4646 8.69701 10.4371C8.66859 10.4096 8.646 10.3766 8.63057 10.3402C8.61514 10.3038 8.60719 10.2646 8.60719 10.225C8.60719 10.1855 8.61514 10.1463 8.63057 10.1099C8.646 10.0735 8.66859 10.0405 8.69701 10.013C8.72542 9.98549 8.75908 9.96396 8.79598 9.9497C8.83287 9.93544 8.87226 9.92874 8.9118 9.93H18.8559C18.8954 9.92874 18.9348 9.93544 18.9717 9.9497C19.0086 9.96396 19.0423 9.98549 19.0707 10.013C19.0991 10.0405 19.1217 10.0735 19.1371 10.1099C19.1526 10.1463 19.1605 10.1855 19.1605 10.225C19.1605 10.2646 19.1526 10.3038 19.1371 10.3402C19.1217 10.3766 19.0991 10.4096 19.0707 10.4371C19.0423 10.4646 19.0086 10.4861 18.9717 10.5004C18.9348 10.5147 18.8954 10.5214 18.8559 10.5201H8.9118ZM8.9118 12.2169C8.87226 12.2182 8.83287 12.2115 8.79598 12.1972C8.75908 12.1829 8.72542 12.1614 8.69701 12.1339C8.66859 12.1064 8.646 12.0734 8.63057 12.037C8.61514 12.0006 8.60719 11.9614 8.60719 11.9219C8.60719 11.8823 8.61514 11.8431 8.63057 11.8067C8.646 11.7703 8.66859 11.7373 8.69701 11.7098C8.72542 11.6823 8.75908 11.6608 8.79598 11.6465C8.83287 11.6322 8.87226 11.6255 8.9118 11.6268H18.8559C18.8954 11.6255 18.9348 11.6322 18.9717 11.6465C19.0086 11.6608 19.0423 11.6823 19.0707 11.7098C19.0991 11.7373 19.1217 11.7703 19.1371 11.8067C19.1526 11.8431 19.1605 11.8823 19.1605 11.9219C19.1605 11.9614 19.1526 12.0006 19.1371 12.037C19.1217 12.0734 19.0991 12.1064 19.0707 12.1339C19.0423 12.1614 19.0086 12.1829 18.9717 12.1972C18.9348 12.2115 18.8954 12.2182 18.8559 12.2169H8.9118ZM8.9118 13.884C8.87226 13.8853 8.83287 13.8786 8.79598 13.8643C8.75908 13.85 8.72542 13.8285 8.69701 13.801C8.66859 13.7735 8.646 13.7405 8.63057 13.7041C8.61514 13.6677 8.60719 13.6285 8.60719 13.589C8.60719 13.5494 8.61514 13.5102 8.63057 13.4738C8.646 13.4374 8.66859 13.4044 8.69701 13.3769C8.72542 13.3494 8.75908 13.3279 8.79598 13.3136C8.83287 13.2993 8.87226 13.2926 8.9118 13.2939H18.8559C18.8954 13.2926 18.9348 13.2993 18.9717 13.3136C19.0086 13.3279 19.0423 13.3494 19.0707 13.3769C19.0991 13.4044 19.1217 13.4374 19.1371 13.4738C19.1526 13.5102 19.1605 13.5494 19.1605 13.589C19.1605 13.6285 19.1526 13.6677 19.1371 13.7041C19.1217 13.7405 19.0991 13.7735 19.0707 13.801C19.0423 13.8285 19.0086 13.85 18.9717 13.8643C18.9348 13.8786 18.8954 13.8853 18.8559 13.884H8.9118ZM3.5496 17.0151C3.5086 16.9506 3.49428 16.8726 3.50967 16.7978C3.52506 16.7229 3.56896 16.6569 3.6321 16.6138C3.69523 16.5707 3.77265 16.5538 3.848 16.5667C3.92335 16.5796 3.99073 16.6213 4.0359 16.683L4.5867 17.4879L5.7822 16.0971C5.80734 16.0677 5.83801 16.0436 5.87247 16.0261C5.90693 16.0086 5.94451 15.998 5.98305 15.995C6.02159 15.992 6.06034 15.9966 6.09709 16.0086C6.13385 16.0206 6.16788 16.0397 6.19725 16.0648C6.22662 16.09 6.25075 16.1207 6.26827 16.1551C6.28578 16.1896 6.29634 16.2272 6.29934 16.2657C6.30233 16.3042 6.2977 16.343 6.28572 16.3797C6.27374 16.4165 6.25464 16.4505 6.2295 16.4799L4.7895 18.1539C4.76077 18.19 4.72397 18.2188 4.68207 18.238C4.64017 18.2573 4.59434 18.2664 4.54826 18.2647C4.50218 18.2631 4.45714 18.2506 4.41676 18.2283C4.37639 18.206 4.34181 18.1746 4.3158 18.1365L3.5496 17.0151ZM6.7596 15.7425H3.0396C3.01229 15.7423 2.98578 15.7517 2.9646 15.7689L2.9562 15.7776C2.94522 15.7885 2.9365 15.8014 2.93053 15.8157C2.92456 15.8299 2.92145 15.8452 2.9214 15.8607V18.3984C2.9213 18.4138 2.92425 18.4291 2.93007 18.4433C2.93588 18.4576 2.94446 18.4706 2.9553 18.4815C2.96624 18.4923 2.97921 18.5009 2.99347 18.5067C3.00773 18.5126 3.023 18.5155 3.0384 18.5154H6.7572C6.77266 18.5153 6.78796 18.5122 6.80222 18.5063C6.81647 18.5003 6.82942 18.4916 6.8403 18.4806C6.85109 18.4696 6.85961 18.4567 6.86537 18.4424C6.87114 18.4281 6.87404 18.4129 6.8739 18.3975V15.8607C6.87336 15.8296 6.86077 15.7999 6.83877 15.7779C6.81678 15.7559 6.7871 15.7433 6.756 15.7428L6.7596 15.7425ZM3.0396 15.1524C2.8616 15.1523 2.69015 15.2195 2.5596 15.3405C2.552 15.3467 2.5447 15.3533 2.5377 15.3603C2.47181 15.4259 2.41952 15.5039 2.38385 15.5898C2.34817 15.6756 2.3298 15.7677 2.3298 15.8607V18.3984C2.33008 18.5855 2.40452 18.7648 2.5368 18.897L2.5386 18.8988C2.67086 19.0315 2.85042 19.1063 3.0378 19.1067H6.7572C6.85011 19.1069 6.94213 19.0887 7.028 19.0532C7.11386 19.0177 7.19189 18.9657 7.2576 18.9C7.3235 18.8345 7.37584 18.7566 7.41162 18.6709C7.44739 18.5851 7.46591 18.4931 7.4661 18.4002V15.8607C7.46578 15.6729 7.39106 15.493 7.25829 15.3602C7.12553 15.2274 6.94556 15.1527 6.7578 15.1524H3.0396ZM8.9118 15.7425C8.83518 15.7401 8.76251 15.7079 8.70917 15.6528C8.65583 15.5978 8.62601 15.5241 8.62601 15.4475C8.62601 15.3708 8.65583 15.2971 8.70917 15.2421C8.76251 15.187 8.83518 15.1548 8.9118 15.1524H18.8559C18.8954 15.1511 18.9348 15.1578 18.9717 15.1721C19.0086 15.1864 19.0423 15.2079 19.0707 15.2354C19.0991 15.2629 19.1217 15.2959 19.1371 15.3323C19.1526 15.3687 19.1605 15.4079 19.1605 15.4475C19.1605 15.487 19.1526 15.5262 19.1371 15.5626C19.1217 15.599 19.0991 15.632 19.0707 15.6595C19.0423 15.687 19.0086 15.7085 18.9717 15.7228C18.9348 15.7371 18.8954 15.7438 18.8559 15.7425H8.9118ZM8.9118 17.4393C8.87226 17.4406 8.83287 17.4339 8.79598 17.4196C8.75908 17.4053 8.72542 17.3838 8.69701 17.3563C8.66859 17.3288 8.646 17.2958 8.63057 17.2594C8.61514 17.223 8.60719 17.1838 8.60719 17.1443C8.60719 17.1047 8.61514 17.0655 8.63057 17.0291C8.646 16.9927 8.66859 16.9597 8.69701 16.9322C8.72542 16.9047 8.75908 16.8832 8.79598 16.8689C8.83287 16.8546 8.87226 16.8479 8.9118 16.8492H18.8559C18.8954 16.8479 18.9348 16.8546 18.9717 16.8689C19.0086 16.8832 19.0423 16.9047 19.0707 16.9322C19.0991 16.9597 19.1217 16.9927 19.1371 17.0291C19.1526 17.0655 19.1605 17.1047 19.1605 17.1443C19.1605 17.1838 19.1526 17.223 19.1371 17.2594C19.1217 17.2958 19.0991 17.3288 19.0707 17.3563C19.0423 17.3838 19.0086 17.4053 18.9717 17.4196C18.9348 17.4339 18.8954 17.4406 18.8559 17.4393H8.9118ZM8.9118 19.1064C8.83518 19.104 8.76251 19.0718 8.70917 19.0167C8.65583 18.9617 8.62601 18.888 8.62601 18.8113C8.62601 18.7347 8.65583 18.661 8.70917 18.606C8.76251 18.5509 8.83518 18.5187 8.9118 18.5163H18.8559C18.8954 18.515 18.9348 18.5217 18.9717 18.536C19.0086 18.5503 19.0423 18.5718 19.0707 18.5993C19.0991 18.6268 19.1217 18.6598 19.1371 18.6962C19.1526 18.7326 19.1605 18.7718 19.1605 18.8113C19.1605 18.8509 19.1526 18.8901 19.1371 18.9265C19.1217 18.9629 19.0991 18.9959 19.0707 19.0234C19.0423 19.0509 19.0086 19.0724 18.9717 19.0867C18.9348 19.101 18.8954 19.1077 18.8559 19.1064H8.9118ZM3.5496 22.2381C3.5086 22.1736 3.49428 22.0956 3.50967 22.0208C3.52506 21.9459 3.56896 21.8799 3.6321 21.8368C3.69523 21.7937 3.77265 21.7768 3.848 21.7897C3.92335 21.8026 3.99073 21.8443 4.0359 21.906L4.5855 22.71L5.781 21.3192C5.80614 21.2898 5.83681 21.2657 5.87127 21.2482C5.90573 21.2307 5.94331 21.2201 5.98185 21.2171C6.02039 21.2141 6.05914 21.2187 6.09589 21.2307C6.13265 21.2427 6.16668 21.2618 6.19605 21.2869C6.22542 21.3121 6.24955 21.3428 6.26707 21.3772C6.28458 21.4117 6.29514 21.4493 6.29813 21.4878C6.30113 21.5263 6.2965 21.5651 6.28452 21.6018C6.27254 21.6386 6.25344 21.6726 6.2283 21.702L4.7883 23.376C4.75957 23.4121 4.72277 23.4409 4.68087 23.4601C4.63897 23.4794 4.59314 23.4885 4.54706 23.4868C4.50098 23.4852 4.45594 23.4727 4.41556 23.4504C4.37519 23.4281 4.34061 23.3967 4.3146 23.3586L3.5496 22.2381ZM6.7596 20.9655H3.0396C3.01229 20.9653 2.98578 20.9747 2.9646 20.9919L2.9562 21C2.94522 21.0109 2.9365 21.0238 2.93053 21.0381C2.92456 21.0523 2.92145 21.0676 2.9214 21.0831V23.6208C2.9213 23.6362 2.92425 23.6515 2.93007 23.6657C2.93588 23.68 2.94446 23.693 2.9553 23.7039C2.96624 23.7147 2.97921 23.7233 2.99347 23.7291C3.00773 23.735 3.023 23.7379 3.0384 23.7378H6.7572C6.77266 23.7377 6.78796 23.7346 6.80222 23.7287C6.81647 23.7227 6.82942 23.714 6.8403 23.703C6.85109 23.692 6.85961 23.6791 6.86537 23.6648C6.87114 23.6505 6.87404 23.6353 6.8739 23.6199V21.0837C6.87336 21.0526 6.86077 21.0229 6.83877 21.0009C6.81678 20.9789 6.7871 20.9663 6.756 20.9658L6.7596 20.9655ZM3.0396 20.3754C2.8616 20.3753 2.69015 20.4425 2.5596 20.5635C2.552 20.5697 2.5447 20.5763 2.5377 20.5833C2.47181 20.6489 2.41952 20.7269 2.38385 20.8128C2.34817 20.8986 2.3298 20.9907 2.3298 21.0837V23.6214C2.33011 23.8084 2.40455 23.9877 2.5368 24.12L2.5386 24.1218C2.60428 24.1878 2.68235 24.2402 2.76833 24.2759C2.85431 24.3116 2.94649 24.33 3.0396 24.33H6.7572C6.85019 24.33 6.94226 24.3116 7.02813 24.276C7.11401 24.2403 7.19199 24.188 7.2576 24.1221C7.3235 24.0566 7.37584 23.9787 7.41162 23.893C7.44739 23.8072 7.46591 23.7152 7.4661 23.6223V21.0837C7.46578 20.8959 7.39106 20.716 7.25829 20.5832C7.12553 20.4504 6.94556 20.3757 6.7578 20.3754H3.0396ZM8.9118 20.9655C8.83518 20.9631 8.76251 20.9309 8.70917 20.8758C8.65583 20.8208 8.62601 20.7471 8.62601 20.6705C8.62601 20.5938 8.65583 20.5201 8.70917 20.4651C8.76251 20.41 8.83518 20.3778 8.9118 20.3754H18.8559C18.8954 20.3741 18.9348 20.3808 18.9717 20.3951C19.0086 20.4094 19.0423 20.4309 19.0707 20.4584C19.0991 20.4859 19.1217 20.5189 19.1371 20.5553C19.1526 20.5917 19.1605 20.6309 19.1605 20.6705C19.1605 20.71 19.1526 20.7492 19.1371 20.7856C19.1217 20.822 19.0991 20.855 19.0707 20.8825C19.0423 20.91 19.0086 20.9315 18.9717 20.9458C18.9348 20.9601 18.8954 20.9668 18.8559 20.9655H8.9118ZM8.9118 24.3294H18.8559C18.915 24.3294 18.9727 24.3117 19.0215 24.2784L20.3607 23.5005V25.6425C20.3603 25.7207 20.3291 25.7955 20.2738 25.8508C20.2185 25.9061 20.1437 25.9373 20.0655 25.9377H1.8294C1.75123 25.9373 1.67637 25.9061 1.6211 25.8508C1.56582 25.7955 1.53459 25.7207 1.5342 25.6425V0.2952C1.53459 0.21703 1.56582 0.142173 1.6211 0.0868977C1.67637 0.0316222 1.75123 0.00039421 1.8294 0H20.0655C20.1437 0.00039421 20.2185 0.0316222 20.2738 0.0868977C20.3291 0.142173 20.3603 0.21703 20.3607 0.2952V19.7565L18.8556 22.014C18.8435 22.0321 18.8334 22.0516 18.8256 22.0719H8.9115C8.83488 22.0743 8.76221 22.1065 8.70887 22.1616C8.65553 22.2166 8.62571 22.2903 8.62571 22.367C8.62571 22.4436 8.65553 22.5173 8.70887 22.5723C8.76221 22.6274 8.83488 22.6596 8.9115 22.662H18.7404L18.5982 23.739H8.9115C8.83488 23.7414 8.76221 23.7736 8.70887 23.8287C8.65553 23.8837 8.62571 23.9574 8.62571 24.0341C8.62571 24.1107 8.65553 24.1844 8.70887 24.2394C8.76221 24.2945 8.83488 24.3267 8.9115 24.3291L8.9118 24.3294ZM18.8268 26.5278V26.7048C18.8264 26.783 18.7952 26.8578 18.7399 26.9131C18.6846 26.9684 18.6098 26.9996 18.5316 27H0.2952C0.21703 26.9996 0.142173 26.9684 0.0868979 26.9131C0.0316223 26.8578 0.00039421 26.783 0 26.7048V1.3575C0.00039421 1.27933 0.0316223 1.20447 0.0868979 1.1492C0.142173 1.09392 0.21703 1.06269 0.2952 1.0623H0.9441V25.6425C0.944576 25.8772 1.038 26.1021 1.20392 26.268C1.36985 26.4339 1.59475 26.5273 1.8294 26.5278H18.8268Z" fill="#6F6F6F"/>
</g>
</g>
</svg>
