<svg width="23" height="25" viewBox="0 0 25 27" fill="none" xmlns="http://www.w3.org/2000/svg">
<g id="Mask group">
<g id="Group 1261154133">
<g id="Group">
<path id="Vector" d="M9.7088 18.141L2.16406 15.6826V23.5241C2.16406 23.6936 2.29122 23.8632 2.46077 23.9479L12.04 26.9997V16.2336L11.1923 17.59C10.8532 18.0986 10.2174 18.3106 9.7088 18.141Z" fill="#6F6F6F"/>
<path id="Vector_2" d="M22.7627 16.1064C22.7203 16.1064 22.7203 16.1064 22.7627 16.1064C22.7203 16.1064 22.6779 16.1488 22.6355 16.1488H22.6779C22.2965 16.276 20.6434 16.8694 15.218 18.7344C14.5822 18.9039 13.9888 18.6072 13.7344 18.141L12.8867 16.6151V26.9573L22.466 23.9055C22.6355 23.8631 22.7627 23.6936 22.7627 23.4816V16.1064ZM22.466 16.1912C22.4236 16.2336 22.4236 16.2336 22.466 16.1912V16.1912Z" fill="#6F6F6F"/>
<path id="Vector_3" d="M22.7201 10.5546C22.6777 10.4699 22.5505 10.3427 22.4658 10.3427L17.6761 8.90157C17.6337 9.1135 17.5066 9.32543 17.337 9.49498L17.2099 9.66452L20.7279 10.7242L12.4626 12.7587L4.19732 10.4275L7.58822 9.53737C7.37628 9.32543 7.24913 9.02873 7.20674 8.77441L2.50187 9.96123C2.37471 10.0036 2.24756 10.0884 2.20517 10.1732L0.467337 13.7336C0.42495 13.8608 0.42495 13.9879 0.467337 14.0727C0.509723 14.1998 0.594495 14.2846 0.721654 14.327L9.96184 17.294C10.089 17.3364 10.3433 17.294 10.4281 17.1245L12.3779 13.9879L14.37 17.6755C14.4548 17.8451 14.6243 17.9298 14.8786 17.8874L24.1188 14.7085C24.246 14.6661 24.3308 14.5813 24.3731 14.4542C24.4155 14.327 24.4155 14.1998 24.3731 14.1151L22.7201 10.5546Z" fill="#6F6F6F"/>
<path id="Vector_4" d="M7.25041 6.4427L8.05575 6.7394C8.14052 7.07849 8.31007 7.3752 8.43722 7.6719L8.05575 8.43485C7.97098 8.6044 8.01336 8.77394 8.14052 8.9011L8.94586 9.70644C9.07302 9.8336 9.28495 9.87598 9.41211 9.79121L10.2174 9.40973C10.5141 9.57928 10.8108 9.70644 11.1076 9.79121L11.4043 10.6389C11.4466 10.8085 11.6162 10.9356 11.8281 10.9356H12.9725C13.1421 10.9356 13.3116 10.8085 13.3964 10.6389L13.6931 9.79121C14.0322 9.70644 14.3289 9.57928 14.5832 9.40973L15.3886 9.79121C15.5581 9.87598 15.7276 9.8336 15.8548 9.70644L16.6601 8.9011C16.7873 8.77394 16.8297 8.56201 16.7449 8.43485L16.3634 7.6719C16.533 7.3752 16.6601 7.07849 16.7873 6.7394L17.5926 6.4427C17.7622 6.40031 17.8893 6.23077 17.8893 6.06122V4.9168C17.8893 4.74725 17.7622 4.57771 17.5926 4.53532L16.8297 4.281C16.7449 3.94192 16.6178 3.60283 16.4058 3.26374L16.8297 2.4584C16.9145 2.28885 16.8721 2.11931 16.7449 1.99215L15.9396 1.18681C15.8124 1.05965 15.6005 1.01727 15.4733 1.10204L14.7528 1.44113C14.4137 1.2292 14.0746 1.10204 13.6931 1.01727L13.4388 0.296703C13.3964 0.127159 13.2269 0 13.0573 0H11.9129C11.7433 0 11.5738 0.127159 11.489 0.296703L11.2347 1.01727C10.8532 1.10204 10.5141 1.27159 10.1751 1.44113L9.49688 1.10204C9.32733 1.01727 9.15779 1.05965 9.03063 1.18681L8.22529 1.99215C8.09813 2.11931 8.05575 2.33124 8.14052 2.4584L8.47961 3.17896C8.31007 3.51805 8.18291 3.85714 8.05575 4.19623L7.2928 4.45055C7.12325 4.49294 6.99609 4.66248 6.99609 4.83203V5.97645C6.99609 6.18838 7.08087 6.35793 7.25041 6.4427ZM12.4639 3.34851C13.566 3.34851 14.4984 4.23862 14.4984 5.38305C14.4984 6.52747 13.566 7.41758 12.4639 7.41758C11.3195 7.41758 10.4294 6.52747 10.4294 5.38305C10.4294 4.23862 11.3195 3.34851 12.4639 3.34851Z" fill="#6F6F6F"/>
<path id="Vector_5" d="M0.807346 4.40841L1.52791 3.47591V8.81657C1.52791 9.07089 1.69746 9.24043 1.95177 9.24043C2.1637 9.24043 2.37563 9.07089 2.37563 8.81657V3.5183L3.0962 4.45079C3.22336 4.62034 3.52006 4.66272 3.68961 4.53556C3.85915 4.40841 3.90154 4.1117 3.77438 3.94216L2.24848 1.99239C2.1637 1.90762 2.07893 1.86523 1.90939 1.86523C1.78223 1.86523 1.65507 1.90762 1.5703 2.03478L0.0867804 3.94216C-0.0403781 4.1117 -0.0403781 4.40841 0.171553 4.53556C0.383484 4.66272 0.637801 4.62034 0.807346 4.40841Z" fill="#6F6F6F"/>
<path id="Vector_6" d="M24.7984 3.90017L23.3149 1.99279C23.2301 1.86563 23.103 1.82324 22.9758 1.82324C22.8486 1.82324 22.7215 1.86563 22.6367 1.99279L21.1532 3.90017C21.026 4.06971 21.026 4.36641 21.238 4.49357C21.4075 4.62073 21.7042 4.62073 21.8314 4.4088L22.5519 3.4763V8.81696C22.5519 9.07128 22.7215 9.24082 22.9758 9.24082C23.1877 9.24082 23.3997 9.07128 23.3997 8.81696V3.51869L24.1202 4.45119C24.2474 4.62073 24.5441 4.66312 24.7136 4.53596C24.9256 4.36641 24.9679 4.06971 24.7984 3.90017Z" fill="#6F6F6F"/>
</g>
</g>
</g>
</svg>
