<svg width="23" height="25" viewBox="0 0 23 28" fill="none" xmlns="http://www.w3.org/2000/svg">
<g id="Mask group">
<g id="Group 1261154137">
<g id="Group">
<path id="Vector" d="M13.8054 19.6709C14.0874 19.6709 14.3159 19.4473 14.3159 19.1714C14.3159 18.8955 14.0874 18.6719 13.8054 18.6719C13.5235 18.6719 13.2949 18.8955 13.2949 19.1714C13.2949 19.4473 13.5235 19.6709 13.8054 19.6709Z" fill="#6F6F6F"/>
<path id="Vector_2" d="M8.69906 13.6749C8.59809 13.6749 8.49939 13.7042 8.41544 13.7591C8.33149 13.814 8.26605 13.892 8.22741 13.9833C8.18878 14.0745 8.17867 14.175 8.19836 14.2719C8.21806 14.3688 8.26668 14.4578 8.33808 14.5276C8.40947 14.5975 8.50044 14.6451 8.59946 14.6643C8.69849 14.6836 8.80114 14.6737 8.89442 14.6359C8.9877 14.5981 9.06743 14.5341 9.12353 14.4519C9.17962 14.3698 9.20956 14.2732 9.20956 14.1744C9.20956 14.0419 9.15578 13.9149 9.06004 13.8212C8.9643 13.7275 8.83445 13.6749 8.69906 13.6749ZM8.69906 13.6749C8.59809 13.6749 8.49939 13.7042 8.41544 13.7591C8.33149 13.814 8.26605 13.892 8.22741 13.9833C8.18878 14.0745 8.17867 14.175 8.19836 14.2719C8.21806 14.3688 8.26668 14.4578 8.33808 14.5276C8.40947 14.5975 8.50044 14.6451 8.59946 14.6643C8.69849 14.6836 8.80114 14.6737 8.89442 14.6359C8.9877 14.5981 9.06743 14.5341 9.12353 14.4519C9.17962 14.3698 9.20956 14.2732 9.20956 14.1744C9.20956 14.0419 9.15578 13.9149 9.06004 13.8212C8.9643 13.7275 8.83445 13.6749 8.69906 13.6749ZM8.69906 13.6749C8.59809 13.6749 8.49939 13.7042 8.41544 13.7591C8.33149 13.814 8.26605 13.892 8.22741 13.9833C8.18878 14.0745 8.17867 14.175 8.19836 14.2719C8.21806 14.3688 8.26668 14.4578 8.33808 14.5276C8.40947 14.5975 8.50044 14.6451 8.59946 14.6643C8.69849 14.6836 8.80114 14.6737 8.89442 14.6359C8.9877 14.5981 9.06743 14.5341 9.12353 14.4519C9.17962 14.3698 9.20956 14.2732 9.20956 14.1744C9.20956 14.0419 9.15578 13.9149 9.06004 13.8212C8.9643 13.7275 8.83445 13.6749 8.69906 13.6749ZM8.69906 13.6749C8.59809 13.6749 8.49939 13.7042 8.41544 13.7591C8.33149 13.814 8.26605 13.892 8.22741 13.9833C8.18878 14.0745 8.17867 14.175 8.19836 14.2719C8.21806 14.3688 8.26668 14.4578 8.33808 14.5276C8.40947 14.5975 8.50044 14.6451 8.59946 14.6643C8.69849 14.6836 8.80114 14.6737 8.89442 14.6359C8.9877 14.5981 9.06743 14.5341 9.12353 14.4519C9.17962 14.3698 9.20956 14.2732 9.20956 14.1744C9.20956 14.0419 9.15578 13.9149 9.06004 13.8212C8.9643 13.7275 8.83445 13.6749 8.69906 13.6749ZM8.69906 13.6749C8.59809 13.6749 8.49939 13.7042 8.41544 13.7591C8.33149 13.814 8.26605 13.892 8.22741 13.9833C8.18878 14.0745 8.17867 14.175 8.19836 14.2719C8.21806 14.3688 8.26668 14.4578 8.33808 14.5276C8.40947 14.5975 8.50044 14.6451 8.59946 14.6643C8.69849 14.6836 8.80114 14.6737 8.89442 14.6359C8.9877 14.5981 9.06743 14.5341 9.12353 14.4519C9.17962 14.3698 9.20956 14.2732 9.20956 14.1744C9.20956 14.0419 9.15578 13.9149 9.06004 13.8212C8.9643 13.7275 8.83445 13.6749 8.69906 13.6749ZM8.69906 13.6749C8.59809 13.6749 8.49939 13.7042 8.41544 13.7591C8.33149 13.814 8.26605 13.892 8.22741 13.9833C8.18878 14.0745 8.17867 14.175 8.19836 14.2719C8.21806 14.3688 8.26668 14.4578 8.33808 14.5276C8.40947 14.5975 8.50044 14.6451 8.59946 14.6643C8.69849 14.6836 8.80114 14.6737 8.89442 14.6359C8.9877 14.5981 9.06743 14.5341 9.12353 14.4519C9.17962 14.3698 9.20956 14.2732 9.20956 14.1744C9.20956 14.0419 9.15578 13.9149 9.06004 13.8212C8.9643 13.7275 8.83445 13.6749 8.69906 13.6749ZM11.2516 7.68066C9.43415 7.68066 7.65754 8.208 6.1464 9.19598C4.63527 10.184 3.45748 11.5882 2.76198 13.2312C2.06648 14.8741 1.88451 16.682 2.23907 18.4261C2.59363 20.1703 3.46881 21.7724 4.75392 23.0299C6.03904 24.2873 7.67637 25.1437 9.45888 25.4906C11.2414 25.8375 13.089 25.6595 14.7681 24.9789C16.4472 24.2984 17.8823 23.146 18.892 21.6673C19.9017 20.1887 20.4407 18.4503 20.4407 16.672C20.4388 14.2879 19.47 12.002 17.7471 10.3162C16.0243 8.63041 13.6881 7.68252 11.2516 7.68066ZM9.54649 8.68969C10.0763 8.5193 10.6191 8.39068 11.1699 8.30506C11.2363 8.29389 11.3044 8.2958 11.3701 8.31068C11.4358 8.32555 11.4978 8.3531 11.5524 8.39171C11.6071 8.43032 11.6534 8.47921 11.6885 8.53552C11.7236 8.59184 11.7469 8.65444 11.757 8.71966C11.7776 8.8501 11.7446 8.98321 11.6652 9.08991C11.5858 9.19661 11.4664 9.26823 11.3333 9.28912C10.8378 9.36725 10.3496 9.48418 9.87322 9.63878C9.82078 9.65679 9.76541 9.66525 9.70986 9.66376C9.60283 9.66403 9.49843 9.63138 9.4114 9.57042C9.32437 9.50947 9.25913 9.4233 9.22488 9.32408C9.18329 9.19819 9.19365 9.06137 9.25374 8.94284C9.31383 8.82431 9.41889 8.73347 9.54649 8.68969ZM10.2306 14.1744C10.2306 14.4708 10.1407 14.7605 9.97247 15.007C9.80418 15.2534 9.56499 15.4455 9.28514 15.5589C9.0053 15.6723 8.69736 15.702 8.40027 15.6442C8.10319 15.5864 7.8303 15.4436 7.61612 15.2341C7.40193 15.0245 7.25607 14.7575 7.19697 14.4668C7.13788 14.1761 7.16821 13.8748 7.28412 13.6009C7.40004 13.3271 7.59634 13.0931 7.8482 12.9284C8.10005 12.7637 8.39615 12.6759 8.69906 12.6759C9.10487 12.677 9.49371 12.8353 9.78066 13.1161C10.0676 13.3969 10.2294 13.7773 10.2306 14.1744ZM4.44656 14.3842C4.40591 14.4712 4.34043 14.5448 4.25801 14.5962C4.17559 14.6476 4.07974 14.6746 3.982 14.6739C3.90814 14.6734 3.83517 14.6581 3.76759 14.629C3.6451 14.5725 3.55022 14.4712 3.50341 14.3469C3.45661 14.2226 3.46165 14.0853 3.51744 13.9646C4.45539 12.0047 6.01247 10.3919 7.95883 9.36405C8.01816 9.32772 8.08449 9.30371 8.1537 9.29353C8.22291 9.28334 8.29352 9.28719 8.36115 9.30483C8.42877 9.32247 8.49197 9.35353 8.54681 9.39608C8.60165 9.43863 8.64697 9.49175 8.67994 9.55216C8.71291 9.61257 8.73284 9.67896 8.73848 9.74722C8.74412 9.81548 8.73536 9.88415 8.71273 9.94896C8.69011 10.0138 8.65411 10.0733 8.60697 10.1239C8.55983 10.1746 8.50255 10.2152 8.4387 10.2432C6.68924 11.1698 5.2899 12.6213 4.44656 14.3842ZM13.8041 20.6682C13.5012 20.6682 13.2051 20.5803 12.9532 20.4156C12.7014 20.251 12.5051 20.0169 12.3892 19.7431C12.2733 19.4693 12.2429 19.1679 12.302 18.8773C12.3611 18.5866 12.507 18.3195 12.7212 18.11C12.9353 17.9004 13.2082 17.7577 13.5053 17.6998C13.8024 17.642 14.1103 17.6717 14.3902 17.7851C14.67 17.8985 14.9092 18.0906 15.0775 18.3371C15.2458 18.5835 15.3356 18.8732 15.3356 19.1696C15.3344 19.5667 15.1727 19.9472 14.8857 20.2279C14.5988 20.5087 14.2099 20.667 13.8041 20.6682ZM15.1876 13.53L8.04051 20.5233C7.94373 20.6162 7.8136 20.6682 7.67805 20.6682C7.5425 20.6682 7.41237 20.6162 7.31559 20.5233C7.21995 20.429 7.16628 20.3015 7.16628 20.1687C7.16628 20.0358 7.21995 19.9083 7.31559 19.814L14.4627 12.8207C14.5588 12.7267 14.6892 12.6738 14.8251 12.6738C14.9611 12.6738 15.0914 12.7267 15.1876 12.8207C15.2837 12.9148 15.3377 13.0424 15.3377 13.1754C15.3377 13.3084 15.2837 13.436 15.1876 13.53ZM8.69906 13.6749C8.59809 13.6749 8.49939 13.7042 8.41544 13.7591C8.33149 13.814 8.26605 13.892 8.22741 13.9833C8.18878 14.0745 8.17867 14.175 8.19836 14.2719C8.21806 14.3688 8.26668 14.4578 8.33808 14.5276C8.40947 14.5975 8.50044 14.6451 8.59946 14.6643C8.69849 14.6836 8.80114 14.6737 8.89442 14.6359C8.9877 14.5981 9.06743 14.5341 9.12353 14.4519C9.17962 14.3698 9.20956 14.2732 9.20956 14.1744C9.20956 14.0419 9.15578 13.9149 9.06004 13.8212C8.9643 13.7275 8.83445 13.6749 8.69906 13.6749ZM8.69906 13.6749C8.59809 13.6749 8.49939 13.7042 8.41544 13.7591C8.33149 13.814 8.26605 13.892 8.22741 13.9833C8.18878 14.0745 8.17867 14.175 8.19836 14.2719C8.21806 14.3688 8.26668 14.4578 8.33808 14.5276C8.40947 14.5975 8.50044 14.6451 8.59946 14.6643C8.69849 14.6836 8.80114 14.6737 8.89442 14.6359C8.9877 14.5981 9.06743 14.5341 9.12353 14.4519C9.17962 14.3698 9.20956 14.2732 9.20956 14.1744C9.20956 14.0419 9.15578 13.9149 9.06004 13.8212C8.9643 13.7275 8.83445 13.6749 8.69906 13.6749ZM8.69906 13.6749C8.59809 13.6749 8.49939 13.7042 8.41544 13.7591C8.33149 13.814 8.26605 13.892 8.22741 13.9833C8.18878 14.0745 8.17867 14.175 8.19836 14.2719C8.21806 14.3688 8.26668 14.4578 8.33808 14.5276C8.40947 14.5975 8.50044 14.6451 8.59946 14.6643C8.69849 14.6836 8.80114 14.6737 8.89442 14.6359C8.9877 14.5981 9.06743 14.5341 9.12353 14.4519C9.17962 14.3698 9.20956 14.2732 9.20956 14.1744C9.20956 14.0419 9.15578 13.9149 9.06004 13.8212C8.9643 13.7275 8.83445 13.6749 8.69906 13.6749ZM8.69906 13.6749C8.59809 13.6749 8.49939 13.7042 8.41544 13.7591C8.33149 13.814 8.26605 13.892 8.22741 13.9833C8.18878 14.0745 8.17867 14.175 8.19836 14.2719C8.21806 14.3688 8.26668 14.4578 8.33808 14.5276C8.40947 14.5975 8.50044 14.6451 8.59946 14.6643C8.69849 14.6836 8.80114 14.6737 8.89442 14.6359C8.9877 14.5981 9.06743 14.5341 9.12353 14.4519C9.17962 14.3698 9.20956 14.2732 9.20956 14.1744C9.20956 14.0419 9.15578 13.9149 9.06004 13.8212C8.9643 13.7275 8.83445 13.6749 8.69906 13.6749ZM8.69906 13.6749C8.59809 13.6749 8.49939 13.7042 8.41544 13.7591C8.33149 13.814 8.26605 13.892 8.22741 13.9833C8.18878 14.0745 8.17867 14.175 8.19836 14.2719C8.21806 14.3688 8.26668 14.4578 8.33808 14.5276C8.40947 14.5975 8.50044 14.6451 8.59946 14.6643C8.69849 14.6836 8.80114 14.6737 8.89442 14.6359C8.9877 14.5981 9.06743 14.5341 9.12353 14.4519C9.17962 14.3698 9.20956 14.2732 9.20956 14.1744C9.20956 14.0419 9.15578 13.9149 9.06004 13.8212C8.9643 13.7275 8.83445 13.6749 8.69906 13.6749ZM8.69906 13.6749C8.59809 13.6749 8.49939 13.7042 8.41544 13.7591C8.33149 13.814 8.26605 13.892 8.22741 13.9833C8.18878 14.0745 8.17867 14.175 8.19836 14.2719C8.21806 14.3688 8.26668 14.4578 8.33808 14.5276C8.40947 14.5975 8.50044 14.6451 8.59946 14.6643C8.69849 14.6836 8.80114 14.6737 8.89442 14.6359C8.9877 14.5981 9.06743 14.5341 9.12353 14.4519C9.17962 14.3698 9.20956 14.2732 9.20956 14.1744C9.20956 14.0419 9.15578 13.9149 9.06004 13.8212C8.9643 13.7275 8.83445 13.6749 8.69906 13.6749ZM8.69906 13.6749C8.59809 13.6749 8.49939 13.7042 8.41544 13.7591C8.33149 13.814 8.26605 13.892 8.22741 13.9833C8.18878 14.0745 8.17867 14.175 8.19836 14.2719C8.21806 14.3688 8.26668 14.4578 8.33808 14.5276C8.40947 14.5975 8.50044 14.6451 8.59946 14.6643C8.69849 14.6836 8.80114 14.6737 8.89442 14.6359C8.9877 14.5981 9.06743 14.5341 9.12353 14.4519C9.17962 14.3698 9.20956 14.2732 9.20956 14.1744C9.20956 14.0419 9.15578 13.9149 9.06004 13.8212C8.9643 13.7275 8.83445 13.6749 8.69906 13.6749Z" fill="#6F6F6F"/>
<path id="Vector_3" d="M19.8035 9.55897L19.7983 9.55397C19.6044 9.32919 19.4053 9.1094 19.1908 8.9046C18.9764 8.69979 18.7569 8.49998 18.5272 8.31017C16.3161 6.46912 13.4627 5.53652 10.5647 5.70764C7.6666 5.87876 4.94858 7.14033 2.97975 9.22819C1.01091 11.3161 -0.0560548 14.0683 0.00227127 16.9086C0.0605973 19.7488 1.23969 22.4569 3.29265 24.4657C5.34562 26.4745 8.11323 27.6282 11.016 27.6853C13.9187 27.7423 16.7315 26.6983 18.8652 24.7719C20.999 22.8454 22.2883 20.1859 22.4632 17.3502C22.6381 14.5145 21.685 11.7225 19.8035 9.55897ZM11.2525 26.6625C9.23314 26.6625 7.25913 26.0766 5.58009 24.9788C3.90105 23.8811 2.5924 22.3208 1.81962 20.4953C1.04684 18.6698 0.844649 16.661 1.23861 14.7231C1.63257 12.7851 2.60498 11.005 4.03289 9.60785C5.46079 8.21067 7.28006 7.25918 9.26062 6.8737C11.2412 6.48821 13.2941 6.68606 15.1597 7.44221C17.0254 8.19836 18.62 9.47885 19.7419 11.1218C20.8638 12.7647 21.4626 14.6962 21.4626 16.6721C21.4599 19.3209 20.3833 21.8605 18.4691 23.7335C16.555 25.6065 13.9596 26.6599 11.2525 26.6625ZM21.9118 6.83159L21.3094 6.24216C21.2627 6.19588 21.2071 6.15914 21.1457 6.13407C21.0844 6.10899 21.0186 6.09608 20.9521 6.09608C20.8856 6.09608 20.8198 6.10899 20.7584 6.13407C20.6971 6.15914 20.6415 6.19588 20.5947 6.24216L19.4818 7.33111C19.4351 7.374 19.3978 7.42584 19.3723 7.48341C19.3468 7.54098 19.3337 7.60306 19.3338 7.66579C19.3848 7.71074 19.441 7.7557 19.492 7.80066C19.635 7.93053 19.7779 8.06041 19.9158 8.19528C20.0332 8.31017 20.1455 8.43005 20.2578 8.54994C20.2935 8.5849 20.3242 8.61987 20.3599 8.65983C20.3956 8.69979 20.4212 8.72976 20.4569 8.76473C20.521 8.76479 20.5844 8.75196 20.6433 8.72704C20.7021 8.70212 20.7551 8.66565 20.7989 8.61987L21.9118 7.53092C21.9591 7.4852 21.9967 7.43075 22.0223 7.37073C22.0479 7.31071 22.0611 7.2463 22.0611 7.18125C22.0611 7.1162 22.0479 7.0518 22.0223 6.99178C21.9967 6.93175 21.9591 6.87731 21.9118 6.83159ZM13.2945 0.6875H9.21049C9.0751 0.6875 8.94525 0.740128 8.84951 0.833806C8.75377 0.927484 8.69999 1.05454 8.69999 1.18702V2.18606C8.69999 2.31854 8.75377 2.44559 8.84951 2.53927C8.94525 2.63295 9.0751 2.68558 9.21049 2.68558H13.2945C13.4299 2.68558 13.5598 2.63295 13.6555 2.53927C13.7512 2.44559 13.805 2.31854 13.805 2.18606V1.18702C13.805 1.05454 13.7512 0.927484 13.6555 0.833806C13.5598 0.740128 13.4299 0.6875 13.2945 0.6875ZM10.742 3.68462V4.68366H11.763V3.68462H10.742Z" fill="#6F6F6F"/>
</g>
</g>
</g>
</svg>
