<svg width="22" height="22" viewBox="0 0 22 22" fill="none" xmlns="http://www.w3.org/2000/svg">
<g id="Group 93" opacity="0.35">
<path id="Path 147" d="M15.7979 14.0582L15.6369 14.2192L15.1529 13.7352C16.2531 12.3295 16.8515 10.5962 16.8529 8.81119C16.8479 6.68084 16.0073 4.63749 14.5119 3.12019C13.7398 2.34758 12.8182 1.74062 11.8035 1.33646C10.7887 0.932304 9.70221 0.739443 8.61036 0.769679C7.51851 0.799914 6.44432 1.05261 5.4535 1.51231C4.46268 1.972 3.57607 2.62903 2.84792 3.44319C1.48706 4.99333 0.767243 7.00333 0.834664 9.06496C0.902085 11.1266 1.75169 13.0853 3.21093 14.5432C4.60188 15.9064 6.43998 16.719 8.38438 16.8302C10.3288 16.9415 12.2476 16.3438 13.7849 15.1482L14.2689 15.6322L14.0689 15.7532L19.2749 20.9592C19.3843 21.0748 19.516 21.1669 19.6622 21.2298C19.8083 21.2927 19.9658 21.3252 20.1249 21.3252C20.284 21.3252 20.4415 21.2927 20.5877 21.2298C20.7338 21.1669 20.8656 21.0748 20.9749 20.9592C21.0905 20.8498 21.1826 20.7181 21.2455 20.5719C21.3085 20.4258 21.3409 20.2683 21.3409 20.1092C21.3409 19.9501 21.3085 19.7926 21.2455 19.6465C21.1826 19.5003 21.0905 19.3685 20.9749 19.2592L15.7979 14.0582ZM4.53792 13.0492C3.69635 12.2042 3.12405 11.1287 2.8933 9.95869C2.66254 8.78863 2.78369 7.57643 3.24144 6.47519C3.69919 5.37394 4.47301 4.43303 5.46517 3.77129C6.45733 3.10956 7.62333 2.75666 8.81592 2.75719C10.4187 2.76998 11.9533 3.40709 13.0939 4.53319C13.6565 5.09459 14.103 5.76138 14.4077 6.49543C14.7124 7.22948 14.8695 8.01639 14.8699 8.81119C14.8705 10.0086 14.5148 11.1792 13.848 12.1738C13.1813 13.1685 12.2337 13.9422 11.1258 14.3967C10.0179 14.8511 8.79993 14.9656 7.62677 14.7257C6.45362 14.4857 5.37838 13.9021 4.53792 13.0492Z" fill="#797979"/>
</g>
</svg>
