<svg width="27" height="20" viewBox="0 0 27 20" fill="none" xmlns="http://www.w3.org/2000/svg">
<g id="Mask group">
<g id="Group 1261154138">
<path id="Vector" d="M8.125 11.25C8.99029 11.25 9.83615 10.9934 10.5556 10.5127C11.2751 10.0319 11.8358 9.34867 12.167 8.54924C12.4981 7.74981 12.5847 6.87015 12.4159 6.02148C12.2471 5.17281 11.8304 4.39326 11.2186 3.78141C10.6067 3.16955 9.82719 2.75287 8.97852 2.58406C8.12985 2.41525 7.25019 2.50189 6.45076 2.83303C5.65133 3.16416 4.96805 3.72492 4.48732 4.44438C4.00659 5.16385 3.75 6.00971 3.75 6.875C3.75 8.03532 4.21094 9.14812 5.03141 9.96859C5.85188 10.7891 6.96468 11.25 8.125 11.25ZM12.5 13.75H3.75C2.75544 13.75 1.80161 14.1451 1.09835 14.8483C0.395088 15.5516 0 16.5054 0 17.5V20H16.25V17.5C16.25 16.5054 15.8549 15.5516 15.1517 14.8483C14.4484 14.1451 13.4946 13.75 12.5 13.75ZM24.977 5.625C24.977 5.579 24.9648 5.53625 24.9634 5.49057L26.25 5.26375L26.0329 4.03267L24.7384 4.26094C24.5523 3.69268 24.251 3.16894 23.8532 2.7225L24.6964 1.71771L23.7388 0.914175L22.8983 1.91593C22.3889 1.60156 21.8198 1.39625 21.2269 1.31298V0H19.9769V1.31302C19.3841 1.3963 18.815 1.60161 18.3056 1.91598L17.465 0.914225L16.5075 1.71776L17.3506 2.72255C16.9529 3.16901 16.6515 3.69275 16.4655 4.26101L15.1709 4.03267L14.9538 5.26375L16.2405 5.49065C16.2392 5.53635 16.2269 5.579 16.2269 5.625C16.2285 6.18052 16.3365 6.73059 16.5451 7.24549L15.418 7.8962L16.043 8.9787L17.1809 8.32174C17.5513 8.7907 18.014 9.17863 18.5404 9.46149L18.0907 10.697L19.2653 11.1245L19.7083 9.90745C20.2977 10.0308 20.9062 10.0308 21.4955 9.90745L21.9385 11.1245L23.1131 10.697L22.6634 9.46156C23.1898 9.17867 23.6525 8.79072 24.0229 8.32174L25.1608 8.9787L25.7858 7.8962L24.6587 7.24549C24.8673 6.7306 24.9753 6.18053 24.977 5.625ZM20.602 8.75C19.9839 8.75 19.3797 8.56672 18.8658 8.22334C18.3519 7.87996 17.9514 7.39191 17.7148 6.82089C17.4783 6.24987 17.4164 5.62153 17.537 5.01534C17.6576 4.40915 17.9552 3.85233 18.3923 3.41529C18.8293 2.97825 19.3861 2.68062 19.9923 2.56005C20.5985 2.43947 21.2268 2.50135 21.7978 2.73788C22.3689 2.9744 22.8569 3.37494 23.2003 3.88884C23.5437 4.40275 23.727 5.00693 23.727 5.625C23.726 6.45351 23.3965 7.24782 22.8106 7.83366C22.2248 8.41951 21.4305 8.74905 20.602 8.75ZM20.602 3.75C20.2311 3.75 19.8686 3.85997 19.5603 4.06599C19.2519 4.27202 19.0116 4.56486 18.8697 4.90747C18.7278 5.25008 18.6906 5.62708 18.763 5.9908C18.8353 6.35451 19.0139 6.6886 19.2761 6.95083C19.5384 7.21305 19.8725 7.39163 20.2362 7.46397C20.5999 7.53632 20.9769 7.49919 21.3195 7.35727C21.6621 7.21536 21.9549 6.97504 22.161 6.66669C22.367 6.35835 22.477 5.99584 22.477 5.625C22.477 5.12772 22.2794 4.65081 21.9278 4.29917C21.5762 3.94754 21.0992 3.75 20.602 3.75Z" fill="#6F6F6F"/>
</g>
</g>
</svg>
